<svg width="12" height="12" viewBox="0 0 12 12" fill="none" xmlns="http://www.w3.org/2000/svg">
  <g clip-path="url(#clip0_3691_22342)">
    <rect width="12" height="12" rx="6" fill="#F5F7FB"/>
    <path
      d="M7.2 4.68753C7.5999 5.35429 7.5999 6.6458 7.2 7.31256M8.1 3.37501C9.2964 4.80303 9.3036 7.20644 8.1 8.62508M3 7.10968V4.89003C3 4.67478 3.1344 4.50002 3.3 4.50002H4.3758C4.4155 4.49985 4.45476 4.48962 4.49121 4.46997C4.52767 4.45031 4.56056 4.42163 4.5879 4.38565L5.4879 3.11513C5.6769 2.86913 6 3.04351 6 3.39114V8.60896C6 8.95921 5.673 9.13209 5.4852 8.88121L4.5882 7.61782C4.56078 7.58081 4.52755 7.55126 4.4906 7.53101C4.45365 7.51075 4.41375 7.50022 4.3734 7.50007H3.3C3.1344 7.50007 3 7.32531 3 7.10968Z"
      stroke="black" stroke-linecap="round" stroke-linejoin="round"/>
    <path
      d="M7.2 4.68753C7.5999 5.35429 7.5999 6.6458 7.2 7.31256M8.1 3.37501C9.2964 4.80303 9.3036 7.20644 8.1 8.62508M3 7.10968V4.89003C3 4.67478 3.1344 4.50002 3.3 4.50002H4.3758C4.4155 4.49985 4.45476 4.48962 4.49121 4.46997C4.52767 4.45031 4.56056 4.42163 4.5879 4.38565L5.4879 3.11513C5.6769 2.86913 6 3.04351 6 3.39114V8.60896C6 8.95921 5.673 9.13209 5.4852 8.88121L4.5882 7.61782C4.56078 7.58081 4.52755 7.55126 4.4906 7.53101C4.45365 7.51075 4.41375 7.50022 4.3734 7.50007H3.3C3.1344 7.50007 3 7.32531 3 7.10968Z"
      stroke="#1976D2" stroke-linecap="round" stroke-linejoin="round"/>
    <rect width="12" height="12" rx="6" fill="#F5F7FB"/>
    <path d="M9.00018 7.12503L7.2002 4.875M9.00018 4.875L7.2002 7.12503" stroke="#9B9B9B" stroke-linecap="round"/>
    <path
      d="M3 7.10968V4.89003C3 4.67478 3.1344 4.50002 3.3 4.50002H4.37579C4.41549 4.49985 4.45475 4.48962 4.4912 4.46997C4.52765 4.45031 4.56054 4.42163 4.58789 4.38565L5.48788 3.11513C5.67688 2.86913 5.99997 3.04351 5.99997 3.39114V8.60896C5.99997 8.95921 5.67298 9.13209 5.48518 8.88121L4.58819 7.61782C4.56076 7.58081 4.52754 7.55126 4.49059 7.53101C4.45363 7.51075 4.41374 7.50022 4.37339 7.50007H3.3C3.1344 7.50007 3 7.32531 3 7.10968Z"
      stroke="#9B9B9B" stroke-linecap="round" stroke-linejoin="round"/>
  </g>
  <defs>
    <clipPath id="clip0_3691_22342">
      <rect width="12" height="12" rx="6" fill="white"/>
    </clipPath>
  </defs>
</svg>
