<svg width="21" height="26" viewBox="0 0 21 26" fill="none" xmlns="http://www.w3.org/2000/svg">
  <g id="_&#227;&#131;&#172;&#227;&#130;&#164;&#227;&#131;&#164;&#227;&#131;&#188;_1"
     clip-path="url(#clip0_4255_22898)">
    <path id="Icon"
          d="M20.34 4.26L16.46 0.38C16.22 0.14 15.89 0 15.54 0H8.03C5.74 0 3.88 1.83 3.88 4.07V5.18C1.74 5.18 0 6.92 0 9.06V22.01C0 24.15 1.74 25.89 3.88 25.89H11.65C13.79 25.89 15.53 24.15 15.53 22.01H16.57C18.85 22.01 20.71 20.18 20.71 17.94V5.18C20.71 4.84 20.57 4.51 20.33 4.26H20.34ZM17.59 5.18H15.54V3.13L17.59 5.18ZM11.65 23.31H3.88C3.17 23.31 2.59 22.73 2.59 22.02V9.07C2.59 8.36 3.17 7.78 3.88 7.78V17.95C3.88 20.19 5.74 22.02 8.02 22.02H12.94C12.94 22.73 12.36 23.31 11.65 23.31ZM16.57 19.43H8.02C7.16 19.43 6.47 18.77 6.47 17.95V4.07C6.47 3.25 7.17 2.59 8.02 2.59H12.94V6.47C12.94 7.19 13.52 7.76 14.23 7.76H18.11V17.93C18.11 18.75 17.41 19.41 16.56 19.41L16.57 19.43Z"
          fill="black"/>
  </g>
  <defs>
    <clipPath id="clip0_4255_22898">
      <rect width="20.72" height="25.9" fill="white"/>
    </clipPath>
  </defs>
</svg>
