<svg width="26" height="23" viewBox="0 0 26 23" fill="none" xmlns="http://www.w3.org/2000/svg">
  <g id="_&#227;&#131;&#172;&#227;&#130;&#164;&#227;&#131;&#164;&#227;&#131;&#188;_1" clip-path="url(#clip0_4818_218)">
    <g id="Icon">
      <path id="Vector"
            d="M22.01 0H3.88C1.74 0 0 1.74 0 3.88V14.24C0 16.38 1.74 18.12 3.88 18.12V20.71C3.88 21.2 4.16 21.65 4.6 21.87C4.78 21.96 4.98 22.01 5.18 22.01C5.45 22.01 5.73 21.92 5.96 21.75L10.79 18.12H22.01C24.15 18.12 25.89 16.38 25.89 14.24V3.88C25.89 1.74 24.15 0 22.01 0ZM23.3 14.24C23.3 14.95 22.72 15.53 22.01 15.53H10.36C10.08 15.53 9.81 15.62 9.58 15.79L6.47 18.12V16.83C6.47 16.11 5.89 15.54 5.18 15.54H3.89C3.18 15.54 2.6 14.96 2.6 14.25V3.88C2.6 3.17 3.18 2.59 3.89 2.59H22.02C22.73 2.59 23.31 3.17 23.31 3.88V14.24H23.3Z"
            fill="black"/>
      <path id="Vector_2"
            d="M6.47018 7.77043H10.3502C11.0702 7.77043 11.6402 7.19043 11.6402 6.48043C11.6402 5.77043 11.0602 5.19043 10.3502 5.19043H6.47018C5.75018 5.19043 5.18018 5.77043 5.18018 6.48043C5.18018 7.19043 5.76018 7.77043 6.47018 7.77043Z"
            fill="black"/>
      <path id="Vector_3"
            d="M16.8302 10.3604H6.47018C5.75018 10.3604 5.18018 10.9404 5.18018 11.6504C5.18018 12.3604 5.76018 12.9404 6.47018 12.9404H16.8302C17.5502 12.9404 18.1202 12.3604 18.1202 11.6504C18.1202 10.9404 17.5402 10.3604 16.8302 10.3604Z"
            fill="black"/>
    </g>
  </g>
  <defs>
    <clipPath id="clip0_4818_218">
      <rect width="25.9" height="22.01" fill="white"/>
    </clipPath>
  </defs>
</svg>
