<svg width="26" height="26" viewBox="0 0 26 26" fill="none" xmlns="http://www.w3.org/2000/svg">
  <g id="_&#227;&#131;&#172;&#227;&#130;&#164;&#227;&#131;&#164;&#227;&#131;&#188;_1" clip-path="url(#clip0_4818_360)">
    <path id="Icon"
          d="M12.95 0C5.81 0 0 5.81 0 12.95C0 16.63 1.57 20.15 4.31 22.59C6.68 24.72 9.75 25.9 12.94 25.9C13.34 25.9 13.74 25.88 14.13 25.85C16.89 25.6 19.5 24.46 21.57 22.6C24.31 20.15 25.89 16.64 25.89 12.96C25.9 5.81 20.09 0 12.95 0ZM10.36 9.06C10.36 7.63 11.52 6.47 12.95 6.47C14.38 6.47 15.54 7.63 15.54 9.06C15.54 10.49 14.38 11.65 12.95 11.65C11.52 11.65 10.36 10.49 10.36 9.06ZM12.95 14.24C14.69 14.24 16.31 14.91 17.53 16.14C18.75 17.35 19.43 18.97 19.43 20.71V21.01C17.6 22.49 15.32 23.3 12.96 23.3C10.6 23.3 8.32 22.48 6.49 21.01V20.72C6.49 17.15 9.39 14.25 12.96 14.25L12.95 14.24ZM21.72 18.43C21.32 16.88 20.52 15.46 19.36 14.31C18.6 13.55 17.73 12.95 16.79 12.51C17.62 11.59 18.13 10.39 18.13 9.06C18.13 6.2 15.81 3.88 12.95 3.88C10.09 3.88 7.77 6.2 7.77 9.06C7.77 10.39 8.29 11.59 9.12 12.51C6.7 13.64 4.87 15.81 4.19 18.44C3.17 16.81 2.59 14.91 2.59 12.95C2.59 7.24 7.24 2.59 12.95 2.59C18.66 2.59 23.31 7.24 23.31 12.95C23.31 14.91 22.74 16.81 21.72 18.44V18.43Z"
          fill="black"/>
  </g>
  <defs>
    <clipPath id="clip0_4818_360">
      <rect width="25.9" height="25.9" fill="white"/>
    </clipPath>
  </defs>
</svg>
