<svg width="24" height="24" viewBox="0 0 24 24" fill="none" xmlns="http://www.w3.org/2000/svg">
  <g id="_&#227;&#131;&#172;&#227;&#130;&#164;&#227;&#131;&#164;&#227;&#131;&#188;_1"
     clip-path="url(#clip0_4255_22836)">
    <g id="Icon">
      <path id="Vector"
            d="M10.8047 9.37749L9.65563 12.8153C9.51663 13.2509 9.62783 13.7234 9.94289 14.0478C10.1745 14.2794 10.4803 14.3999 10.7954 14.3999C10.9251 14.3999 11.0549 14.3814 11.1753 14.335L14.6132 13.186C14.7892 13.1304 14.9467 13.0285 15.0857 12.8987L23.1661 4.81842C23.7035 4.29023 23.9908 3.57672 23.9908 2.82614C23.9908 2.07556 23.6942 1.36205 23.1661 0.833863C22.0634 -0.26884 20.2749 -0.26884 19.1722 0.833863L11.0919 8.91417C10.9622 9.0439 10.8603 9.20143 10.8047 9.38676V9.37749ZM12.9915 10.4061L20.8773 2.52035C21.044 2.35355 21.3128 2.35355 21.4796 2.52035C21.5908 2.63155 21.6 2.75201 21.6 2.81687C21.6 2.88174 21.5815 3.01147 21.4796 3.1134L13.5939 10.9991L12.695 11.2956L12.9915 10.3968V10.4061Z"
            fill="black"/>
      <path id="Vector_2"
            d="M22.7954 8.39491C22.1282 8.39491 21.6 8.93237 21.6 9.59028V17.9856C21.6 19.9687 19.9876 21.581 18.0046 21.581H5.99537C4.01236 21.581 2.4 19.9687 2.4 17.9856V5.99491C2.4 4.0119 4.01236 2.39955 5.99537 2.39955H14.3907C15.0579 2.39955 15.5861 1.86209 15.5861 1.20418C15.5861 0.546265 15.0486 0.00881296 14.3907 0.00881296H5.99537C2.68726 -0.000453454 0 2.68681 0 5.99491V17.9949C0 21.303 2.68726 23.9903 5.99537 23.9903H17.9954C21.3035 23.9903 23.9907 21.303 23.9907 17.9949V9.59955C23.9907 8.93236 23.4533 8.40418 22.7954 8.40418V8.39491Z"
            fill="black"/>
    </g>
  </g>
  <defs>
    <clipPath id="clip0_4255_22836">
      <rect width="24" height="24" fill="white"/>
    </clipPath>
  </defs>
</svg>
