<svg width="26" height="19" viewBox="0 0 26 19" fill="none" xmlns="http://www.w3.org/2000/svg">
  <g id="_&#227;&#131;&#172;&#227;&#130;&#164;&#227;&#131;&#164;&#227;&#131;&#188;_1"
     clip-path="url(#clip0_4255_22851)">
    <g id="Icon">
      <path id="Vector"
            d="M1.29 5.17977H14.48C15.02 6.67977 16.44 7.76977 18.13 7.76977C19.82 7.76977 21.24 6.67977 21.78 5.17977H24.61C25.33 5.17977 25.9 4.59977 25.9 3.88977C25.9 3.17977 25.32 2.59977 24.61 2.59977H21.78C21.24 1.09977 19.82 0.00976562 18.13 0.00976562C16.44 0.00976562 15.02 1.09977 14.48 2.59977H1.29C0.57 2.59977 0 3.17977 0 3.88977C0 4.59977 0.58 5.17977 1.29 5.17977ZM18.12 2.58977C18.83 2.58977 19.41 3.16977 19.41 3.87977C19.41 4.58977 18.83 5.16977 18.12 5.16977C17.41 5.16977 16.83 4.58977 16.83 3.87977C16.83 3.16977 17.41 2.58977 18.12 2.58977Z"
            fill="black"/>
      <path id="Vector_2"
            d="M24.6 12.9494H11.41C10.87 11.4494 9.45 10.3594 7.76 10.3594C6.07 10.3594 4.65 11.4494 4.11 12.9494H1.29C0.57 12.9494 0 13.5294 0 14.2394C0 14.9494 0.58 15.5294 1.29 15.5294H4.12C4.66 17.0294 6.08 18.1194 7.77 18.1194C9.46 18.1194 10.88 17.0294 11.42 15.5294H24.61C25.33 15.5294 25.9 14.9494 25.9 14.2394C25.9 13.5294 25.32 12.9494 24.61 12.9494H24.6ZM7.77 15.5394C7.06 15.5394 6.48 14.9594 6.48 14.2494C6.48 13.5394 7.06 12.9594 7.77 12.9594C8.48 12.9594 9.06 13.5394 9.06 14.2494C9.06 14.9594 8.48 15.5394 7.77 15.5394Z"
            fill="black"/>
    </g>
  </g>
  <defs>
    <clipPath id="clip0_4255_22851">
      <rect width="25.9" height="18.13" fill="white"/>
    </clipPath>
  </defs>
</svg>
