<svg width="26" height="19" viewBox="0 0 26 19" fill="none" xmlns="http://www.w3.org/2000/svg">
  <g id="_&#227;&#131;&#172;&#227;&#130;&#164;&#227;&#131;&#164;&#227;&#131;&#188;_1"
     clip-path="url(#clip0_4255_22844)">
    <path id="Icon"
          d="M25.8 13.7503C25.73 13.5903 25.64 13.4503 25.52 13.3303L22.93 10.7403C22.42 10.2303 21.6 10.2303 21.1 10.7403C20.59 11.2503 20.59 12.0703 21.1 12.5703L21.48 12.9503H19.43C18.21 12.9503 17.05 12.3703 16.32 11.4003L14.57 9.07031L16.32 6.74031C17.05 5.77031 18.21 5.19031 19.43 5.19031H21.48L21.1 5.57031C20.59 6.08031 20.59 6.90031 21.1 7.40031C21.35 7.65031 21.68 7.78031 22.02 7.78031C22.36 7.78031 22.68 7.65031 22.94 7.40031L25.53 4.81031C25.65 4.69031 25.75 4.55031 25.81 4.39031C25.94 4.07031 25.94 3.72031 25.81 3.40031C25.74 3.24031 25.65 3.10031 25.53 2.98031L22.94 0.390312C22.43 -0.119687 21.61 -0.119687 21.11 0.390312C20.6 0.900312 20.6 1.72031 21.11 2.22031L21.49 2.60031H19.44C17.41 2.60031 15.48 3.57031 14.26 5.19031L12.97 6.92031L11.67 5.19031C10.45 3.57031 8.52 2.60031 6.49 2.60031H1.29C0.57 2.60031 0 3.18031 0 3.89031C0 4.60031 0.58 5.18031 1.29 5.18031H6.47C7.69 5.18031 8.85 5.76031 9.58 6.73031L11.33 9.06031L9.58 11.3903C8.85 12.3603 7.69 12.9403 6.47 12.9403H1.29C0.57 12.9403 0 13.5203 0 14.2303C0 14.9403 0.58 15.5203 1.29 15.5203H6.47C8.5 15.5203 10.43 14.5503 11.65 12.9303L12.94 11.2003L14.24 12.9303C15.46 14.5503 17.39 15.5203 19.42 15.5203H21.47L21.09 15.9003C20.58 16.4103 20.58 17.2303 21.09 17.7303C21.34 17.9803 21.67 18.1103 22.01 18.1103C22.35 18.1103 22.67 17.9803 22.93 17.7303L25.52 15.1403C25.64 15.0203 25.74 14.8803 25.8 14.7203C25.93 14.4003 25.93 14.0503 25.8 13.7303V13.7503Z"
          fill="black"/>
  </g>
  <defs>
    <clipPath id="clip0_4255_22844">
      <rect width="25.89" height="18.13" fill="white"/>
    </clipPath>
  </defs>
</svg>
