<svg width="20" height="27" viewBox="0 0 20 27" fill="none" xmlns="http://www.w3.org/2000/svg">
  <g id="_&#227;&#131;&#172;&#227;&#130;&#164;&#227;&#131;&#164;&#227;&#131;&#188;_1"
     clip-path="url(#clip0_4255_22903)">
    <g id="Icon">
      <path id="Vector"
            d="M14.36 12.7703L8.27995 8.72028C7.96995 8.51028 7.56995 8.49028 7.23995 8.67028C6.90995 8.85028 6.69995 9.19028 6.69995 9.56028V17.6703C6.69995 18.0403 6.90995 18.3903 7.23995 18.5603C7.38995 18.6403 7.54995 18.6803 7.71995 18.6803C7.91995 18.6803 8.10995 18.6203 8.27995 18.5103L14.36 14.4603C14.64 14.2703 14.81 13.9603 14.81 13.6203C14.81 13.2803 14.64 12.9603 14.36 12.7803V12.7703ZM8.72995 15.7703V11.4503L11.97 13.6103L8.72995 15.7703Z"
            fill="black"/>
      <path id="Vector_2" d="M18.79 25.8203V0.780273L0.790039 0.780273V25.8203H18.79Z" stroke="black"
            stroke-width="1.57" stroke-miterlimit="10"/>
    </g>
  </g>
  <defs>
    <clipPath id="clip0_4255_22903">
      <rect width="19.57" height="26.61" fill="white"/>
    </clipPath>
  </defs>
</svg>
