<svg width="50" height="50" viewBox="0 0 50 50" fill="none" xmlns="http://www.w3.org/2000/svg">
  <path
    d="M13.1175 42.7932L15.5341 42.3099C17.0734 42.002 17.843 41.8481 18.2964 41.2951C18.7497 40.7422 18.7497 39.9573 18.7497 38.3875V33.3334H12.333C10.4474 33.3334 9.50458 33.3334 8.91879 33.9192C8.33301 34.505 8.33301 35.4478 8.33301 37.3334V38.8709C8.33301 41.1283 8.33301 42.257 9.06503 42.8572C9.79705 43.4573 10.9039 43.2359 13.1175 42.7932Z"
    stroke="white" stroke-width="1.2"/>
  <path
    d="M33.9508 38.6265L36.3675 38.1432C37.9067 37.8353 38.6764 37.6814 39.1297 37.1285C39.583 36.5755 39.583 35.7906 39.583 34.2209V29.1667H33.1663C31.2807 29.1667 30.3379 29.1667 29.7521 29.7525C29.1663 30.3383 29.1663 31.2811 29.1663 33.1667V34.7042C29.1663 36.9617 29.1663 38.0904 29.8984 38.6905C30.6304 39.2906 31.7372 39.0692 33.9508 38.6265Z"
    stroke="white" stroke-width="1.2"/>
  <path
    d="M18.7497 33.3333H12.333C10.4474 33.3333 9.50458 33.3333 8.91879 33.9191C8.33301 34.5049 8.33301 35.4477 8.33301 37.3333V38.8708C8.33301 41.1282 8.33301 42.257 9.06503 42.8571C9.79705 43.4572 10.9039 43.2358 13.1175 42.7931L15.5341 42.3098C17.0734 42.0019 17.843 41.848 18.2964 41.295C18.7497 40.7421 18.7497 39.9572 18.7497 38.3875V15.7239C18.7497 14.1788 18.7497 13.4063 19.1925 12.8569C19.6353 12.3075 20.3902 12.1434 21.9 11.8152L28.333 10.4167C30.367 10.0099 31.5074 9.7818 33.5413 9.375M39.583 29.1667V34.2208C39.583 35.7905 39.583 36.5754 39.1297 37.1284C38.6764 37.6813 37.9067 37.8353 36.3675 38.1431L33.9508 38.6264C31.7372 39.0692 30.6304 39.2905 29.8984 38.6904C29.1663 38.0903 29.1663 36.9616 29.1663 34.7041V33.1667C29.1663 31.281 29.1663 30.3382 29.7521 29.7525C30.3379 29.1667 31.2807 29.1667 33.1663 29.1667H39.583ZM39.583 29.1667V18.75M39.583 18.75L18.7497 22.9167M39.583 18.75V15"
    stroke="#1976D2" stroke-width="3"/>
  <path d="M41.667 1.6665V6.6665M41.667 6.6665V11.6665M41.667 6.6665H46.667M41.667 6.6665H36.667" stroke="#1976D2"
        stroke-width="3" stroke-linecap="round" stroke-linejoin="round"/>
</svg>
