<svg width="44" height="44" viewBox="0 0 44 44" fill="none" xmlns="http://www.w3.org/2000/svg">
  <path
    d="M39.75 22.9998V37.5832C39.75 38.6882 39.311 39.748 38.5296 40.5294C37.7482 41.3108 36.6884 41.7498 35.5833 41.7498H29.3333M39.75 22.9998C26.3292 22.9998 18.6979 27.1353 14.6354 31.8394M39.75 22.9998V19.8748M2.25 31.3332V37.5832C2.25 38.6882 2.68899 39.748 3.47039 40.5294C4.25179 41.3108 5.3116 41.7498 6.41667 41.7498H29.3333M2.25 31.3332V8.4165C2.25 7.31143 2.68899 6.25163 3.47039 5.47023C4.25179 4.68882 5.3116 4.24984 6.41667 4.24984H23.0833M2.25 31.3332C5.17292 30.8457 9.82708 30.7228 14.6354 31.8394M29.3333 41.7498C25.7833 35.9832 20.1104 33.1082 14.6354 31.8394M35.5833 2.1665V8.4165M35.5833 14.6665V8.4165M35.5833 8.4165H41.8333M35.5833 8.4165H29.3333M13.7083 12.5832C12.6667 12.5832 10.5833 13.2082 10.5833 15.7082C10.5833 18.2082 12.6667 18.8332 13.7083 18.8332C14.75 18.8332 16.8333 18.2082 16.8333 15.7082C16.8333 13.2082 14.75 12.5832 13.7083 12.5832Z"
    stroke="#1976D2" stroke-width="3" stroke-linecap="round" stroke-linejoin="round"/>
</svg>
