<svg width="42" height="42" viewBox="0 0 42 42" fill="none" xmlns="http://www.w3.org/2000/svg">
  <path
    d="M33.5 14.75V21V14.75ZM33.5 21V27.25V21ZM33.5 21H39.75H33.5ZM33.5 21H27.25H33.5ZM23.0833 10.5833C23.0833 12.7935 22.2054 14.9131 20.6426 16.4759C19.0798 18.0387 16.9601 18.9167 14.75 18.9167C12.5399 18.9167 10.4202 18.0387 8.85744 16.4759C7.29464 14.9131 6.41667 12.7935 6.41667 10.5833C6.41667 8.3732 7.29464 6.25358 8.85744 4.69078C10.4202 3.12797 12.5399 2.25 14.75 2.25C16.9601 2.25 19.0798 3.12797 20.6426 4.69078C22.2054 6.25358 23.0833 8.3732 23.0833 10.5833ZM2.25 37.6667C2.25 34.3515 3.56696 31.172 5.91117 28.8278C8.25537 26.4836 11.4348 25.1667 14.75 25.1667C18.0652 25.1667 21.2446 26.4836 23.5888 28.8278C25.933 31.172 27.25 34.3515 27.25 37.6667V39.75H2.25V37.6667Z"
    fill="#3F3F46" stroke="#3F3F46" stroke-width="3" stroke-linecap="round" stroke-linejoin="round"/>
</svg>
