<svg width="24" height="24" viewBox="0 0 24 24" fill="none" xmlns="http://www.w3.org/2000/svg">
  <rect width="24" height="24" rx="4" fill="#FFB58B"/>
  <path
    d="M8.29 11.79C8.19627 11.8829 8.12188 11.9935 8.07111 12.1154C8.02034 12.2372 7.9942 12.3679 7.9942 12.5C7.9942 12.632 8.02034 12.7627 8.07111 12.8845C8.12188 13.0064 8.19627 13.117 8.29 13.21L11.29 16.21C11.383 16.3037 11.4936 16.3781 11.6154 16.4288C11.7373 16.4796 11.868 16.5058 12 16.5058C12.132 16.5058 12.2627 16.4796 12.3846 16.4288C12.5064 16.3781 12.617 16.3037 12.71 16.21L15.71 13.21C15.8983 13.0216 16.0041 12.7663 16.0041 12.5C16.0041 12.2337 15.8983 11.9783 15.71 11.79C15.5217 11.6016 15.2663 11.4959 15 11.4959C14.7337 11.4959 14.4783 11.6016 14.29 11.79L13 13.09V7.29495V4.39745V4C13 3.73478 12.8946 3.48043 12.7071 3.29289C12.5196 3.10536 12.2652 3 12 3C11.7348 3 11.4804 3.10536 11.2929 3.29289C11.1054 3.48043 11 3.73478 11 4V4.39745V7.29495V13.09L9.71 11.79C9.61704 11.6962 9.50644 11.6218 9.38458 11.5711C9.26272 11.5203 9.13201 11.4942 9 11.4942C8.86799 11.4942 8.73728 11.5203 8.61542 11.5711C8.49356 11.6218 8.38296 11.6962 8.29 11.79ZM18 7.49995H16C15.7348 7.49995 15.4804 7.60531 15.2929 7.79285C15.1054 7.98038 15 8.23474 15 8.49995C15 8.76517 15.1054 9.01952 15.2929 9.20706C15.4804 9.3946 15.7348 9.49995 16 9.49995H18C18.2652 9.49995 18.5196 9.60531 18.7071 9.79285C18.8946 9.98038 19 10.2347 19 10.5V17.5C19 17.7652 18.8946 18.0195 18.7071 18.2071C18.5196 18.3946 18.2652 18.5 18 18.5H6C5.73478 18.5 5.48043 18.3946 5.29289 18.2071C5.10536 18.0195 5 17.7652 5 17.5V10.5C5 10.2347 5.10536 9.98038 5.29289 9.79285C5.48043 9.60531 5.73478 9.49995 6 9.49995H8C8.26522 9.49995 8.51957 9.3946 8.70711 9.20706C8.89464 9.01952 9 8.76517 9 8.49995C9 8.23474 8.89464 7.98038 8.70711 7.79285C8.51957 7.60531 8.26522 7.49995 8 7.49995H6C5.20435 7.49995 4.44129 7.81602 3.87868 8.37863C3.31607 8.94124 3 9.7043 3 10.5V17.5C3 18.2956 3.31607 19.0587 3.87868 19.6213C4.44129 20.1839 5.20435 20.5 6 20.5H18C18.7956 20.5 19.5587 20.1839 20.1213 19.6213C20.6839 19.0587 21 18.2956 21 17.5V10.5C21 9.7043 20.6839 8.94124 20.1213 8.37863C19.5587 7.81602 18.7956 7.49995 18 7.49995Z"
    fill="white"/>
</svg>
