<svg width="24" height="24" viewBox="0 0 24 24" fill="none" xmlns="http://www.w3.org/2000/svg">
  <g clip-path="url(#clip0_6938_49970)">
    <path d="M7.84365 14.7694C7.94155 14.8103 8.0517 14.8106 8.1498 14.7702C8.24791 14.7299 8.32601 14.6522 8.36683 14.5543L8.93084 13.2003H11.0645L11.6285 14.5543C11.7135 14.7582 11.9478 14.8545 12.1516 14.7695C12.3556 14.6844 12.4519 14.4502 12.3669 14.2463L10.3669 9.44628C10.3047 9.29727 10.1591 9.2002 9.99769 9.2002C9.83624 9.2002 9.69062 9.29727 9.6285 9.44628L7.62851 14.2463C7.58764 14.3442 7.58737 14.4543 7.62772 14.5524C7.66807 14.6505 7.7457 14.7286 7.84365 14.7694ZM9.99765 10.6402L10.7309 12.4003H9.26444L9.99765 10.6402Z" fill="black"/>
    <path fill-rule="evenodd" clip-rule="evenodd" d="M13.1969 14.0002C12.976 14.0002 12.7969 14.1793 12.7969 14.4002C12.7969 14.6211 12.976 14.8002 13.1969 14.8002H15.5969C15.8178 14.8002 15.9969 14.6211 15.9969 14.4002C15.9969 14.1793 15.8178 14.0002 15.5969 14.0002H14.7969V10.0002H15.5969C15.8178 10.0002 15.9969 9.82113 15.9969 9.6002C15.9969 9.37928 15.8178 9.2002 15.5969 9.2002H13.1969C12.976 9.2002 12.7969 9.37928 12.7969 9.6002C12.7969 9.82113 12.976 10.0002 13.1969 10.0002H13.9969V14.0002H13.1969Z" fill="black"/>
    <path d="M0.397419 17.6C0.397419 18.4837 1.11378 19.2 1.99741 19.2C2.19783 19.1992 2.39627 19.1604 2.5822 19.0856C3.5278 19.8096 4.86222 20.1872 6.5022 20.1872C6.74939 20.1872 7.00622 20.1756 7.26659 20.1588C8.42819 22.5324 10.1042 24 11.9974 24C13.8906 24 15.5666 22.5324 16.7286 20.16C16.9894 20.1768 17.2458 20.1884 17.493 20.1884C19.133 20.1884 20.4674 19.8108 21.413 19.0868C21.5989 19.1611 21.7972 19.1996 21.9974 19.2C22.7036 19.198 23.3249 18.7332 23.5263 18.0563C23.7277 17.3794 23.4616 16.6506 22.8714 16.2628C22.9273 14.9748 22.4293 13.5132 21.4158 12C22.4293 10.4872 22.9274 9.02557 22.8714 7.73717C23.5629 7.29091 23.8018 6.39205 23.4231 5.66132C23.0445 4.93059 22.1723 4.6075 21.409 4.91516C20.3222 4.08357 18.7174 3.71517 16.7289 3.84477C15.5682 1.46921 13.8915 0 11.9974 0C10.1034 0 8.42662 1.46921 7.26462 3.84481C5.27703 3.716 3.67302 4.08479 2.58461 4.9152C1.82175 4.61002 0.951824 4.93358 0.573783 5.66309C0.195743 6.3926 0.433007 7.28993 1.1222 7.73721C1.06701 9.02483 1.5654 10.4864 2.57902 12C1.5654 13.5132 1.06701 14.9748 1.12342 16.2628C0.671019 16.5573 0.397931 17.0602 0.397419 17.6ZM1.19743 17.6C1.19743 17.1582 1.55559 16.8 1.99745 16.8C2.4393 16.8 2.79746 17.1581 2.79746 17.6C2.79746 18.0419 2.4393 18.4 1.99745 18.4C1.78526 18.4 1.58177 18.3157 1.43175 18.1657C1.28172 18.0157 1.19743 17.8122 1.19743 17.6ZM7.76104 4.68801C8.82591 4.81552 9.87504 5.05101 10.8922 5.39083C10.1763 5.71037 9.47708 6.06628 8.79745 6.45724C8.11542 6.85087 7.45476 7.2804 6.81824 7.74402C7.02795 6.696 7.34387 5.67202 7.76104 4.68801ZM17.1762 7.74402C16.5399 7.28036 15.8794 6.85079 15.1974 6.45724C14.5188 6.06676 13.8208 5.71084 13.1062 5.39083C14.1224 5.05117 15.1704 4.81571 16.2342 4.68801C16.6512 5.67206 16.9668 6.696 17.1762 7.74402ZM16.2338 19.312C15.1689 19.1845 14.1198 18.949 13.1026 18.6092C13.8186 18.2897 14.5178 17.9338 15.1974 17.5428C15.8794 17.1492 16.5401 16.7196 17.1766 16.256C16.9669 17.304 16.651 18.328 16.2338 19.312ZM14.7974 7.15041C15.6995 7.66954 16.5618 8.25473 17.3774 8.90121C17.5245 9.92759 17.598 10.9632 17.5974 12C17.5982 13.0369 17.5248 14.0724 17.3778 15.0988C16.5621 15.7453 15.6996 16.3305 14.7974 16.8496C13.8982 17.3697 12.9624 17.824 11.9974 18.2088C11.0324 17.8238 10.0966 17.3693 9.19742 16.8488C8.29537 16.3297 7.43303 15.7445 6.61743 15.098C6.32462 13.0425 6.32462 10.9559 6.61743 8.90039C7.43307 8.25422 8.29545 7.6693 9.19742 7.15037C10.0974 6.62986 11.034 6.17533 11.9998 5.79036C12.964 6.17553 13.899 6.63006 14.7974 7.15041ZM18.2774 9.65722C19.0752 10.3635 19.7998 11.1484 20.4403 12C19.8007 12.8515 19.0771 13.6364 18.2803 14.3428C18.3588 13.5644 18.3979 12.7824 18.3975 12C18.3977 11.2176 18.3583 10.4357 18.2795 9.65722H18.2774ZM5.71742 14.3428C4.91942 13.6367 4.19479 12.8518 3.55461 12C4.19412 11.1486 4.91776 10.3637 5.71459 9.65722C5.55724 11.2151 5.55724 12.7849 5.71459 14.3428H5.71742ZM8.79981 17.5428C9.47846 17.9333 10.1764 18.2892 10.891 18.6092C9.87485 18.9489 8.82682 19.1843 7.76301 19.312C7.34595 18.328 7.03019 17.304 6.8206 16.256C7.4563 16.7196 8.11617 17.1492 8.79741 17.5428H8.79981ZM11.9974 23.2C10.495 23.2 9.12983 22.0084 8.12302 20.0756C9.4487 19.8877 10.7486 19.5489 11.9974 19.066C13.2467 19.5492 14.5472 19.8879 15.8734 20.0756C14.8646 22.0084 13.4998 23.2 11.9974 23.2ZM21.9975 18.4C21.5556 18.4 21.1974 18.0419 21.1974 17.6C21.1974 17.1581 21.5556 16.8 21.9975 16.8C22.4393 16.8 22.7975 17.1581 22.7975 17.6C22.7975 18.0419 22.4393 18.4 21.9975 18.4ZM22.0814 16.0084C22.053 16.0084 22.0262 16 21.9974 16C21.1137 16 20.3974 16.7164 20.3974 17.6C20.3989 17.9577 20.5214 18.3044 20.745 18.5836C19.8738 19.1584 18.6022 19.4316 17.079 19.3744C17.575 18.1354 17.9265 16.8434 18.1266 15.524C19.1612 14.6909 20.0975 13.7426 20.9174 12.6976C21.5928 13.6782 21.9946 14.821 22.0814 16.0084ZM22.7974 6.4C22.7974 6.84181 22.4393 7.20001 21.9974 7.20001C21.5556 7.20001 21.1974 6.84185 21.1974 6.4C21.1974 5.95814 21.5556 5.59998 21.9974 5.59998C22.4393 5.59998 22.7974 5.95818 22.7974 6.4ZM20.745 5.41641C20.5215 5.69564 20.399 6.04231 20.3974 6.4C20.3974 7.28367 21.1138 7.99999 21.9974 7.99999C22.0262 7.99999 22.053 7.99318 22.0814 7.9916C21.9947 9.17906 21.5929 10.3219 20.9174 11.3024C20.0974 10.2573 19.1609 9.30905 18.1262 8.47601C17.9258 7.15651 17.5739 5.86449 17.0774 4.62561C18.6019 4.56802 19.8742 4.84 20.745 5.41641ZM11.9974 0.800014C13.4998 0.800014 14.865 1.99161 15.8718 3.92441C14.5468 4.1125 13.2476 4.45122 11.9994 4.93401C10.7501 4.45086 9.44968 4.11215 8.12345 3.92441C9.13022 1.99161 10.495 0.800014 11.9974 0.800014ZM1.99741 5.60002C2.43922 5.60002 2.79742 5.95818 2.79742 6.40004C2.79742 6.84189 2.43926 7.20005 1.99741 7.20005C1.55555 7.20005 1.19739 6.84189 1.19739 6.40004C1.19739 5.95818 1.55559 5.60002 1.99741 5.60002ZM1.91344 7.9916C1.94182 7.9916 1.96863 7.99999 1.99745 7.99999C2.88112 7.99999 3.59744 7.28363 3.59744 6.4C3.59594 6.04231 3.47343 5.6956 3.24983 5.41641C4.12062 4.84162 5.39221 4.56881 6.91583 4.62561C6.41993 5.86457 6.06838 7.15659 5.86824 8.47601C4.83376 9.30905 3.89745 10.2572 3.07744 11.302C2.40182 10.3217 2.00001 9.17899 1.91344 7.9916ZM3.07744 12.698C3.89785 13.7428 4.83438 14.6909 5.86903 15.524C6.0694 16.8436 6.42119 18.1357 6.91745 19.3748C5.39505 19.4324 4.12263 19.1584 3.25144 18.5836C3.47446 18.3042 3.59637 17.9575 3.59744 17.6C3.59744 16.7163 2.88108 16 1.99745 16C1.96863 16 1.94186 16.0072 1.91344 16.0084C2.00016 14.8211 2.40194 13.6783 3.07744 12.698Z" fill="black"/>
  </g>
  <defs>
    <clipPath id="clip0_6938_49970">
      <rect width="24" height="24" fill="white"/>
    </clipPath>
  </defs>
</svg>
