<svg width="26" height="30" viewBox="0 0 26 30" fill="none" xmlns="http://www.w3.org/2000/svg">
  <path d="M18.773 0C18.8428 0 18.9127 0 18.9864 0C19.1577 2.11566 18.3502 3.69648 17.3687 4.84126C16.4057 5.97813 15.0871 7.08075 12.9543 6.91345C12.812 4.82809 13.6209 3.36451 14.601 2.22237C15.5099 1.15795 17.1764 0.210776 18.773 0Z" fill="white"/>
  <path d="M25.2294 22.021C25.2294 22.042 25.2294 22.0605 25.2294 22.0802C24.63 23.8956 23.775 25.4513 22.7317 26.8952C21.7793 28.2059 20.6121 29.9699 18.528 29.9699C16.7272 29.9699 15.5311 28.8119 13.6855 28.7803C11.7331 28.7487 10.6595 29.7485 8.8745 30.0002C8.67031 30.0002 8.46612 30.0002 8.26589 30.0002C6.95512 29.8105 5.89729 28.7724 5.12664 27.8371C2.85421 25.0733 1.09819 21.5032 0.771484 16.9347C0.771484 16.4868 0.771484 16.0402 0.771484 15.5923C0.909806 12.3226 2.49853 9.66423 4.61024 8.37586C5.72472 7.69084 7.25679 7.10725 8.96276 7.36809C9.69389 7.48138 10.4408 7.73168 11.0956 7.97934C11.716 8.21778 12.4919 8.64065 13.227 8.61825C13.725 8.60376 14.2203 8.34425 14.7222 8.16113C16.1924 7.63024 17.6336 7.02163 19.5332 7.30749C21.8161 7.65264 23.4365 8.667 24.4377 10.232C22.5064 11.4611 20.9796 13.3133 21.2405 16.4762C21.4723 19.3494 23.1427 21.0303 25.2294 22.021Z" fill="white"/>
</svg>
