<svg width="20" height="20" viewBox="0 0 20 20" fill="none" xmlns="http://www.w3.org/2000/svg">
  <g clip-path="url(#clip0_6632_30905)">
    <rect width="20" height="20" rx="4" fill="#E0E0E0"/>
    <path d="M8.32812 10.833C8.686 11.3114 9.14259 11.7073 9.66692 11.9938C10.1912 12.2802 10.771 12.4506 11.367 12.4933C11.963 12.5359 12.5611 12.45 13.1209 12.2411C13.6807 12.0323 14.1891 11.7055 14.6115 11.283L17.1115 8.78298C17.8705 7.99714 18.2904 6.94463 18.2809 5.85214C18.2714 4.75965 17.8332 3.7146 17.0607 2.94207C16.2882 2.16953 15.2431 1.73133 14.1506 1.72184C13.0581 1.71234 12.0056 2.13232 11.2198 2.89131L9.78646 4.31631" stroke="black" stroke-width="2" stroke-linecap="round" stroke-linejoin="round"/>
    <path d="M11.6639 9.16604C11.306 8.6876 10.8494 8.29172 10.3251 8.00526C9.80078 7.71879 9.22098 7.54844 8.62503 7.50576C8.02908 7.46308 7.43091 7.54907 6.87112 7.75789C6.31132 7.96671 5.80298 8.29348 5.38057 8.71604L2.88057 11.216C2.12158 12.0019 1.7016 13.0544 1.7111 14.1469C1.72059 15.2394 2.15879 16.2844 2.93133 17.057C3.70386 17.8295 4.74891 18.2677 5.8414 18.2772C6.93389 18.2867 7.98639 17.8667 8.77224 17.1077L10.1972 15.6827" stroke="black" stroke-width="2" stroke-linecap="round" stroke-linejoin="round"/>
  </g>
  <defs>
    <clipPath id="clip0_6632_30905">
      <rect width="20" height="20" rx="4" fill="white"/>
    </clipPath>
  </defs>
</svg>
