<svg width="27" height="25" viewBox="0 0 27 25" fill="none" xmlns="http://www.w3.org/2000/svg">
  <path
    d="M14 7.375C14 6.47216 13.8222 5.57817 13.4767 4.74405C13.1312 3.90994 12.6248 3.15204 11.9864 2.51364C11.348 1.87524 10.5901 1.36883 9.75595 1.02333C8.92184 0.677827 8.02784 0.5 7.125 0.5C6.22216 0.5 5.32817 0.677827 4.49405 1.02333C3.65994 1.36883 2.90204 1.87524 2.26364 2.51364C1.62524 3.15204 1.11883 3.90994 0.773328 4.74405C0.427827 5.57817 0.25 6.47216 0.25 7.375C0.25 9.19836 0.974328 10.947 2.26364 12.2364C3.55295 13.5257 5.30164 14.25 7.125 14.25C8.94836 14.25 10.697 13.5257 11.9864 12.2364C13.2757 10.947 14 9.19836 14 7.375ZM7.75 8L7.75125 11.13C7.75125 11.2958 7.6854 11.4547 7.56819 11.5719C7.45098 11.6892 7.29201 11.755 7.12625 11.755C6.96049 11.755 6.80152 11.6892 6.68431 11.5719C6.5671 11.4547 6.50125 11.2958 6.50125 11.13V8H3.37C3.20424 8 3.04527 7.93415 2.92806 7.81694C2.81085 7.69973 2.745 7.54076 2.745 7.375C2.745 7.20924 2.81085 7.05027 2.92806 6.93306C3.04527 6.81585 3.20424 6.75 3.37 6.75H6.5V3.625C6.5 3.45924 6.56585 3.30027 6.68306 3.18306C6.80027 3.06585 6.95924 3 7.125 3C7.29076 3 7.44973 3.06585 7.56694 3.18306C7.68415 3.30027 7.75 3.45924 7.75 3.625V6.75H10.8713C11.037 6.75 11.196 6.81585 11.3132 6.93306C11.4304 7.05027 11.4963 7.20924 11.4963 7.375C11.4963 7.54076 11.4304 7.69973 11.3132 7.81694C11.196 7.93415 11.037 8 10.8713 8H7.75ZM7.125 15.5C8.46281 15.5004 9.78003 15.1705 10.9597 14.5395C12.1394 13.9085 13.145 12.996 13.8872 11.883C14.6295 10.77 15.0854 9.49089 15.2146 8.15932C15.3437 6.82776 15.142 5.48491 14.6275 4.25H17.75C18.413 4.25 19.0489 4.51339 19.5178 4.98223C19.9866 5.45107 20.25 6.08696 20.25 6.75V15.5C20.25 16.163 19.9866 16.7989 19.5178 17.2678C19.0489 17.7366 18.413 18 17.75 18H4C3.33696 18 2.70107 17.7366 2.23223 17.2678C1.76339 16.7989 1.5 16.163 1.5 15.5V13.2375C3.01126 14.6916 5.02776 15.5027 7.125 15.5ZM7.125 21.125C6.57065 21.1251 6.03198 20.941 5.59368 20.6016C5.15539 20.2622 4.84234 19.7867 4.70375 19.25H18.375C19.2038 19.25 19.9987 18.9208 20.5847 18.3347C21.1708 17.7487 21.5 16.9538 21.5 16.125V7.45375C22.0367 7.59234 22.5122 7.90539 22.8516 8.34369C23.191 8.78198 23.3751 9.32065 23.375 9.875V16.125C23.375 17.4511 22.8482 18.7229 21.9105 19.6605C20.9729 20.5982 19.7011 21.125 18.375 21.125H7.125ZM10.25 24.25C9.69565 24.2501 9.15698 24.066 8.71868 23.7266C8.28039 23.3872 7.96734 22.9117 7.82875 22.375H19.3125C20.7215 22.375 22.0727 21.8153 23.069 20.819C24.0653 19.8227 24.625 18.4715 24.625 17.0625V10.5787C25.1617 10.7173 25.6372 11.0304 25.9766 11.4687C26.316 11.907 26.5001 12.4457 26.5 13V17.0625C26.5 18.9687 25.7427 20.7969 24.3948 22.1448C23.0469 23.4927 21.2187 24.25 19.3125 24.25H10.25Z"
    fill="#DAE7F6"/>
</svg>

