<svg width="40" height="40" viewBox="0 0 40 40" fill="none" xmlns="http://www.w3.org/2000/svg">
  <path
    d="M31.6665 5.83325H8.33317C7.4165 5.83325 6.6665 6.58325 6.6665 7.49992V12.4999C6.6665 13.4166 7.4165 14.1666 8.33317 14.1666H31.6665C32.5832 14.1666 33.3332 13.4166 33.3332 12.4999V7.49992C33.3332 6.58325 32.5832 5.83325 31.6665 5.83325ZM31.6665 15.8333H8.33317C7.4165 15.8333 6.6665 16.5833 6.6665 17.4999V22.4999C6.6665 23.4166 7.4165 24.1666 8.33317 24.1666H31.6665C32.5832 24.1666 33.3332 23.4166 33.3332 22.4999V17.4999C33.3332 16.5833 32.5832 15.8333 31.6665 15.8333ZM31.6665 25.8333H8.33317C7.4165 25.8333 6.6665 26.5833 6.6665 27.4999V32.4999C6.6665 33.4166 7.4165 34.1666 8.33317 34.1666H31.6665C32.5832 34.1666 33.3332 33.4166 33.3332 32.4999V27.4999C33.3332 26.5833 32.5832 25.8333 31.6665 25.8333Z"
    fill="#9B9B9B"/>
  <path
    d="M31.6668 39.9999C36.2692 39.9999 40.0002 36.269 40.0002 31.6666C40.0002 27.0642 36.2692 23.3333 31.6668 23.3333C27.0645 23.3333 23.3335 27.0642 23.3335 31.6666C23.3335 36.269 27.0645 39.9999 31.6668 39.9999Z"
    fill="#F44336"/>
  <path d="M36.0919 34.3176L34.3252 36.0859L27.2544 29.0159L29.0219 27.2476L36.0919 34.3176Z" fill="white"/>
  <path d="M29.0159 36.0916L27.2476 34.325L34.3176 27.2542L36.0859 29.0216L29.0159 36.0916Z" fill="white"/>
</svg>
