<svg width="24" height="24" viewBox="0 0 24 24" fill="none" xmlns="http://www.w3.org/2000/svg">
  <rect width="24" height="24" rx="12" fill="#E1E9F2"/>
  <path fill-rule="evenodd" clip-rule="evenodd"
        d="M15.0126 5.42681C15.696 4.74339 16.804 4.74339 17.4874 5.42681L18.5732 6.5126C19.2566 7.19601 19.2566 8.30405 18.5732 8.98747L9.96358 17.5971C9.75328 17.8074 9.49286 17.9606 9.2069 18.0423L5.95606 18.9711C5.69416 19.046 5.41229 18.9729 5.21969 18.7803C5.02709 18.5877 4.95405 18.3059 5.02887 18.044L5.95769 14.7931C6.03939 14.5072 6.19262 14.2467 6.40292 14.0364L15.0126 5.42681ZM16.4268 6.48747C16.3291 6.38984 16.1708 6.38984 16.0732 6.48747L14.8106 7.75003L16.25 9.18937L17.5126 7.92681C17.6102 7.82918 17.6102 7.67089 17.5126 7.57326L16.4268 6.48747ZM15.1893 10.25L13.75 8.81069L7.46358 15.0971C7.43354 15.1271 7.41165 15.1643 7.39997 15.2052L6.84203 17.158L8.79482 16.6C8.83567 16.5884 8.87287 16.5665 8.90292 16.5364L15.1893 10.25Z"
        fill="#9B9B9B"/>
</svg>
