<svg width="20" height="20" viewBox="0 0 20 20" fill="none" xmlns="http://www.w3.org/2000/svg">
  <path
    d="M8 3.02458H3C2.46957 3.02458 1.96086 3.23529 1.58579 3.61036C1.21071 3.98544 1 4.49414 1 5.02458V16.0246C1 16.555 1.21071 17.0637 1.58579 17.4388C1.96086 17.8139 2.46957 18.0246 3 18.0246H14C14.5304 18.0246 15.0391 17.8139 15.4142 17.4388C15.7893 17.0637 16 16.555 16 16.0246V11.0246M14.586 1.61058C14.7705 1.41956 14.9912 1.26719 15.2352 1.16237C15.4792 1.05756 15.7416 1.00238 16.0072 1.00008C16.2728 0.997768 16.5361 1.04837 16.7819 1.14893C17.0277 1.24949 17.251 1.398 17.4388 1.58579C17.6266 1.77357 17.7751 1.99688 17.8756 2.24267C17.9762 2.48846 18.0268 2.75182 18.0245 3.01738C18.0222 3.28294 17.967 3.54538 17.8622 3.78939C17.7574 4.03339 17.605 4.25408 17.414 4.43858L8.828 13.0246H6V10.1966L14.586 1.61058Z"
    stroke="#9B9B9B" stroke-width="2" stroke-linecap="round" stroke-linejoin="round"/>
</svg>
