<svg width="40" height="40" viewBox="0 0 40 40" fill="none" xmlns="http://www.w3.org/2000/svg">
  <path
    d="M0.35743 7.05361C0.35743 5.2776 1.06294 3.57434 2.31877 2.31852C3.57459 1.06269 5.27786 0.357178 7.05386 0.357178H32.9467C34.7227 0.357178 36.426 1.06269 37.6818 2.31852C38.9376 3.57434 39.6431 5.2776 39.6431 7.05361V32.9465C39.6431 34.3232 39.2271 35.6036 38.5146 36.6679L22.4967 21.0125C21.8294 20.3603 20.9334 19.9951 20.0003 19.9951C19.0672 19.9951 18.1711 20.3603 17.5039 21.0125L1.486 36.6679C0.748301 35.5672 0.355388 34.2715 0.35743 32.9465V7.05361ZM3.38957 38.5536C4.44314 39.2411 5.70207 39.6429 7.05386 39.6429H32.9467C34.2985 39.6429 35.5574 39.2411 36.611 38.5536L20.6253 22.9286C20.4584 22.765 20.234 22.6734 20.0003 22.6734C19.7666 22.6734 19.5422 22.765 19.3753 22.9286L3.38957 38.5536ZM32.0539 12.8572C32.0539 11.7916 31.6305 10.7696 30.8771 10.0161C30.1236 9.26263 29.1016 8.83932 28.036 8.83932C26.9704 8.83932 25.9484 9.26263 25.1949 10.0161C24.4415 10.7696 24.0181 11.7916 24.0181 12.8572C24.0181 13.9228 24.4415 14.9447 25.1949 15.6982C25.9484 16.4517 26.9704 16.875 28.036 16.875C29.1016 16.875 30.1236 16.4517 30.8771 15.6982C31.6305 14.9447 32.0539 13.9228 32.0539 12.8572Z"
    fill="#1976D2"/>
</svg>
