<svg width="40" height="40" viewBox="0 0 40 40" fill="none" xmlns="http://www.w3.org/2000/svg">
<path d="M31.667 5.83337H8.33366C7.41699 5.83337 6.66699 6.58337 6.66699 7.50004V12.5C6.66699 13.4167 7.41699 14.1667 8.33366 14.1667H31.667C32.5837 14.1667 33.3337 13.4167 33.3337 12.5V7.50004C33.3337 6.58337 32.5837 5.83337 31.667 5.83337ZM31.667 15.8334H8.33366C7.41699 15.8334 6.66699 16.5834 6.66699 17.5V22.5C6.66699 23.4167 7.41699 24.1667 8.33366 24.1667H31.667C32.5837 24.1667 33.3337 23.4167 33.3337 22.5V17.5C33.3337 16.5834 32.5837 15.8334 31.667 15.8334ZM31.667 25.8334H8.33366C7.41699 25.8334 6.66699 26.5834 6.66699 27.5V32.5C6.66699 33.4167 7.41699 34.1667 8.33366 34.1667H31.667C32.5837 34.1667 33.3337 33.4167 33.3337 32.5V27.5C33.3337 26.5834 32.5837 25.8334 31.667 25.8334Z" fill="#9B9B9B"/>
<path d="M31.6663 40C36.2687 40 39.9997 36.2691 39.9997 31.6667C39.9997 27.0643 36.2687 23.3334 31.6663 23.3334C27.064 23.3334 23.333 27.0643 23.333 31.6667C23.333 36.2691 27.064 40 31.6663 40Z" fill="#F44336"/>
<path d="M36.0914 34.3176L34.3247 36.0859L27.2539 29.0159L29.0214 27.2476L36.0914 34.3176Z" fill="white"/>
<path d="M29.0154 36.0918L27.2471 34.3251L34.3171 27.2543L36.0854 29.0218L29.0154 36.0918Z" fill="white"/>
</svg>
