<svg width="20" height="20" viewBox="0 0 20 20" fill="none" xmlns="http://www.w3.org/2000/svg">
    <mask id="mask0_0_1" style="mask-type:alpha" maskUnits="userSpaceOnUse" x="1" y="1" width="18" height="18">
        <path d="M1 9C1 5.22876 1 3.34315 2.17157 2.17157C3.34315 1 5.22876 1 9 1H11C14.7712 1 16.6569 1 17.8284 2.17157C19 3.34315 19 5.22876 19 9V11C19 14.7712 19 16.6569 17.8284 17.8284C16.6569 19 14.7712 19 11 19H9C5.22876 19 3.34315 19 2.17157 17.8284C1 16.6569 1 14.7712 1 11V9Z"
              fill="#273B4A"/>
    </mask>
    <g mask="url(#mask0_0_1)">
        <path d="M3.40989 10.5901L3.25713 10.7429C2.27646 11.7235 1.78613 12.2139 1.49264 12.8158C1.39066 13.025 1.30712 13.2427 1.24299 13.4664C1.05843 14.1102 1.09488 14.8027 1.16777 16.1877L1.5 22.5H19V17.7573C19 16.3059 19 15.5802 18.7614 14.9207C18.6962 14.7404 18.6181 14.565 18.5277 14.3959C18.1971 13.7774 17.6577 13.2919 16.5789 12.321L16.3643 12.1279C15.4682 11.3214 15.0202 10.9182 14.5078 10.8039C14.1864 10.7322 13.8523 10.741 13.5352 10.8295C13.0295 10.9705 12.6033 11.3967 11.7508 12.2492C11.1184 12.8816 10.8023 13.1977 10.4625 13.2406C10.2519 13.2672 10.0383 13.226 9.8526 13.1231C9.55307 12.9572 9.37424 12.5399 9.01657 11.7053C8.25588 9.9304 7.87554 9.04293 7.22167 8.71514C6.89249 8.55011 6.52413 8.47917 6.1572 8.51014C5.42836 8.57164 4.75554 9.24446 3.40989 10.5901L3.40989 10.5901Z"
              fill="#3F3F46" stroke="#3F3F46"/>
    </g>
    <path d="M1 9C1 5.22876 1 3.34315 2.17157 2.17157C3.34315 1 5.22876 1 9 1H11C14.7712 1 16.6569 1 17.8284 2.17157C19 3.34315 19 5.22876 19 9V11C19 14.7712 19 16.6569 17.8284 17.8284C16.6569 19 14.7712 19 11 19H9C5.22876 19 3.34315 19 2.17157 17.8284C1 16.6569 1 14.7712 1 11V9Z"
          stroke="#3F3F46" stroke-width="1.2"/>
    <circle cx="14.5" cy="5.5" r="1.5" fill="#3F3F46"/>
</svg>

