<svg width="26" height="26" viewBox="0 0 26 26" fill="none" xmlns="http://www.w3.org/2000/svg">
  <g id="Isolation_Mode" clip-path="url(#clip0_4255_22890)">
    <g id="Icon">
      <path id="Vector"
            d="M18.1501 7.77043C18.8701 7.77043 19.4401 7.19043 19.4401 6.48043C19.4401 5.77043 18.8601 5.19043 18.1501 5.19043H18.1401C17.4301 5.19043 16.8501 5.77043 16.8501 6.48043C16.8501 7.19043 17.4401 7.77043 18.1501 7.77043Z"
            fill="black"/>
      <path id="Vector_2"
            d="M19.42 0H6.47C2.9 0 0 2.9 0 6.47V19.42C0 22.99 2.9 25.89 6.47 25.89H19.42C22.99 25.89 25.89 22.99 25.89 19.42V6.47C25.89 2.9 22.99 0 19.42 0ZM6.47 2.59H19.42C21.56 2.59 23.3 4.33 23.3 6.47V14.76C20.78 13.94 17.94 14.19 15.58 15.49C13.03 12.76 9.51 11.21 5.73 11.21C4.65 11.21 3.6 11.35 2.58 11.59V6.47C2.58 4.33 4.32 2.59 6.46 2.59H6.47ZM2.59 19.42V14.26C3.59 13.96 4.64 13.8 5.74 13.8C9.17 13.8 12.34 15.37 14.44 18.11C15.62 19.6 16.37 21.4 16.62 23.3H6.47C4.33 23.3 2.59 21.56 2.59 19.42ZM19.42 23.3H19.22C19 21.24 18.3 19.26 17.2 17.54C19.12 16.63 21.4 16.62 23.3 17.52V19.41C23.3 21.55 21.56 23.29 19.42 23.29V23.3Z"
            fill="black"/>
    </g>
  </g>
  <defs>
    <clipPath id="clip0_4255_22890">
      <rect width="25.9" height="25.9" fill="white"/>
    </clipPath>
  </defs>
</svg>
