<svg width="18" height="16" viewBox="0 0 18 16" fill="none" xmlns="http://www.w3.org/2000/svg">
  <path
    d="M13.1667 11.3333L16.5 8.00001M16.5 8.00001L13.1667 4.66668M16.5 8.00001H4.83333M9.83333 11.3333V12.1667C9.83333 12.8297 9.56994 13.4656 9.1011 13.9344C8.63226 14.4033 7.99637 14.6667 7.33333 14.6667H4C3.33696 14.6667 2.70107 14.4033 2.23223 13.9344C1.76339 13.4656 1.5 12.8297 1.5 12.1667V3.83334C1.5 3.1703 1.76339 2.53442 2.23223 2.06558C2.70107 1.59674 3.33696 1.33334 4 1.33334H7.33333C7.99637 1.33334 8.63226 1.59674 9.1011 2.06558C9.56994 2.53442 9.83333 3.1703 9.83333 3.83334V4.66668"
    stroke="#9B9B9B" stroke-width="1.5" stroke-linecap="round" stroke-linejoin="round"/>
</svg>
