<svg width="24" height="19" viewBox="0 0 24 19" fill="none" xmlns="http://www.w3.org/2000/svg">
  <g clip-path="url(#clip0_6871_21422)">
    <path d="M22.8 0H6C5.68174 0 5.37652 0.125111 5.15147 0.347811C4.92643 0.57051 4.8 0.872555 4.8 1.1875V4.75H10.8V2.375H18V14.25H22.8C23.1183 14.25 23.4235 14.1249 23.6485 13.9022C23.8736 13.6795 24 13.3774 24 13.0625V1.1875C24 0.872555 23.8736 0.57051 23.6485 0.347811C23.4235 0.125111 23.1183 0 22.8 0ZM8.7 3.82227C8.7 3.91084 8.66444 3.99579 8.60115 4.05843C8.53786 4.12106 8.45201 4.15625 8.3625 4.15625H7.2375C7.14799 4.15625 7.06215 4.12106 6.99885 4.05843C6.93556 3.99579 6.9 3.91084 6.9 3.82227V2.70898C6.9 2.62041 6.93556 2.53546 6.99885 2.47282C7.06215 2.41019 7.14799 2.375 7.2375 2.375H8.3625C8.45201 2.375 8.53786 2.41019 8.60115 2.47282C8.66444 2.53546 8.7 2.62041 8.7 2.70898V3.82227ZM21.9 11.541C21.9 11.6296 21.8644 11.7145 21.8011 11.7772C21.7379 11.8398 21.652 11.875 21.5625 11.875H20.4375C20.348 11.875 20.2621 11.8398 20.1989 11.7772C20.1356 11.7145 20.1 11.6296 20.1 11.541V10.4277C20.1 10.3392 20.1356 10.2542 20.1989 10.1916C20.2621 10.1289 20.348 10.0938 20.4375 10.0938H21.5625C21.652 10.0938 21.7379 10.1289 21.8011 10.1916C21.8644 10.2542 21.9 10.3392 21.9 10.4277V11.541ZM21.9 7.68164C21.9 7.77022 21.8644 7.85517 21.8011 7.9178C21.7379 7.98044 21.652 8.01562 21.5625 8.01562H20.4375C20.348 8.01562 20.2621 7.98044 20.1989 7.9178C20.1356 7.85517 20.1 7.77022 20.1 7.68164V6.56836C20.1 6.47978 20.1356 6.39483 20.1989 6.3322C20.2621 6.26956 20.348 6.23438 20.4375 6.23438H21.5625C21.652 6.23438 21.7379 6.26956 21.8011 6.3322C21.8644 6.39483 21.9 6.47978 21.9 6.56836V7.68164ZM21.9 3.82227C21.9 3.91084 21.8644 3.99579 21.8011 4.05843C21.7379 4.12106 21.652 4.15625 21.5625 4.15625H20.4375C20.348 4.15625 20.2621 4.12106 20.1989 4.05843C20.1356 3.99579 20.1 3.91084 20.1 3.82227V2.70898C20.1 2.62041 20.1356 2.53546 20.1989 2.47282C20.2621 2.41019 20.348 2.375 20.4375 2.375H21.5625C21.652 2.375 21.7379 2.41019 21.8011 2.47282C21.8644 2.53546 21.9 2.62041 21.9 2.70898V3.82227ZM15.6 5.9375H1.2C0.88174 5.9375 0.576516 6.06261 0.351472 6.28531C0.126428 6.50801 0 6.81006 0 7.125L0 17.8125C0 18.1274 0.126428 18.4295 0.351472 18.6522C0.576516 18.8749 0.88174 19 1.2 19H15.6C15.9183 19 16.2235 18.8749 16.4485 18.6522C16.6736 18.4295 16.8 18.1274 16.8 17.8125V7.125C16.8 6.81006 16.6736 6.50801 16.4485 6.28531C16.2235 6.06261 15.9183 5.9375 15.6 5.9375ZM3.6 8.3125C3.83734 8.3125 4.06935 8.38215 4.26668 8.51263C4.46402 8.64311 4.61783 8.82858 4.70866 9.04556C4.79948 9.26255 4.82325 9.50132 4.77694 9.73167C4.73064 9.96202 4.61635 10.1736 4.44853 10.3397C4.28071 10.5058 4.06689 10.6189 3.83411 10.6647C3.60133 10.7105 3.36005 10.687 3.14078 10.5971C2.92151 10.5072 2.73409 10.355 2.60224 10.1597C2.47038 9.96446 2.4 9.73487 2.4 9.5C2.4 9.18506 2.52643 8.88301 2.75147 8.66031C2.97652 8.43761 3.28174 8.3125 3.6 8.3125ZM14.4 16.625H2.4V15.4375L4.8 13.0625L6 14.25L10.8 9.5L14.4 13.0625V16.625Z" fill="#3F3F46"/>
  </g>
  <defs>
    <clipPath id="clip0_6871_21422">
      <rect width="24" height="19" fill="white"/>
    </clipPath>
  </defs>
</svg>
