<svg width="23" height="25" viewBox="0 0 23 25" fill="none" xmlns="http://www.w3.org/2000/svg">
    <path d="M3.69419 17.4612L3.99029 17.4019C4.37076 17.3258 4.56099 17.2878 4.7215 17.2257C5.3765 16.9724 5.85063 16.394 5.9706 15.7021C6 15.5325 6 15.3385 6 14.9505V13H3.25245C3.018 13 2.90078 13 2.80205 13.0098C1.85403 13.1041 1.10411 13.854 1.00982 14.802C1 14.9008 1 15.018 1 15.2525C1 15.5322 1 15.6721 1.01244 15.7831C1.13321 16.8608 2.0909 17.646 3.17139 17.553C3.28269 17.5435 3.41986 17.516 3.69419 17.4612Z"
          stroke="white" stroke-width="1.2"/>
    <path d="M13.6942 15.4612L13.9903 15.4019C14.3708 15.3258 14.561 15.2878 14.7215 15.2257C15.3765 14.9724 15.8506 14.394 15.9706 13.7021C16 13.5325 16 13.3385 16 12.9505V11H13.2525C13.018 11 12.9008 11 12.802 11.0098C11.854 11.1041 11.1041 11.854 11.0098 12.802C11 12.9008 11 13.018 11 13.2525C11 13.5322 11 13.6721 11.0124 13.7831C11.1332 14.8608 12.0909 15.646 13.1714 15.553C13.2827 15.5435 13.4199 15.516 13.6942 15.4612Z"
          stroke="white" stroke-width="1.2"/>
    <path d="M6 13H3.25245C3.018 13 2.90078 13 2.80205 13.0098C1.85403 13.1041 1.10411 13.854 1.00982 14.802C1 14.9008 1 15.018 1 15.2525V15.2525C1 15.5322 1 15.6721 1.01244 15.7831C1.13321 16.8608 2.0909 17.646 3.17139 17.553C3.28269 17.5435 3.41986 17.516 3.69419 17.4612L3.99029 17.4019C4.37076 17.3258 4.56099 17.2878 4.7215 17.2257C5.3765 16.9724 5.85063 16.394 5.9706 15.7021C6 15.5325 6 15.3385 6 14.9505V6.27922C6 4.70946 6 3.92459 6.45332 3.37163C6.90663 2.81867 7.67627 2.66475 9.21554 2.35689L11.2155 1.95689C13.4291 1.51417 14.536 1.29281 15.268 1.89292C16 2.49304 16 3.62176 16 5.87922V6M16 11V12.9505C16 13.3385 16 13.5325 15.9706 13.7021C15.8506 14.394 15.3765 14.9724 14.7215 15.2257C14.561 15.2878 14.3708 15.3258 13.9903 15.4019L13.6942 15.4612C13.4199 15.516 13.2827 15.5435 13.1714 15.553C12.0909 15.646 11.1332 14.8608 11.0124 13.7831C11 13.6721 11 13.5322 11 13.2525V13.2525C11 13.018 11 12.9008 11.0098 12.802C11.1041 11.854 11.854 11.1041 12.802 11.0098C12.9008 11 13.018 11 13.2525 11H16ZM16 11V6M16 6L6 8"
          stroke="#3F3F46" stroke-width="1.2"/>
</svg>

