<svg width="180" height="180" viewBox="0 0 180 180" fill="none" xmlns="http://www.w3.org/2000/svg">
  <rect width="180" height="180" fill="#DCDCDC"/>
  <path d="M37.7246 119.781V134H35.2734L28.8965 123.814V134H26.4453V119.781H28.8965L35.293 129.986V119.781H37.7246ZM40.4209 128.834V128.609C40.4209 127.848 40.5316 127.141 40.753 126.49C40.9743 125.833 41.2933 125.263 41.71 124.781C42.1332 124.293 42.6475 123.915 43.253 123.648C43.8649 123.375 44.5551 123.238 45.3233 123.238C46.098 123.238 46.7881 123.375 47.3936 123.648C48.0056 123.915 48.5232 124.293 48.9463 124.781C49.3695 125.263 49.6918 125.833 49.9131 126.49C50.1345 127.141 50.2452 127.848 50.2452 128.609V128.834C50.2452 129.596 50.1345 130.302 49.9131 130.953C49.6918 131.604 49.3695 132.174 48.9463 132.662C48.5232 133.144 48.0088 133.521 47.4034 133.795C46.7979 134.062 46.111 134.195 45.3428 134.195C44.5681 134.195 43.8747 134.062 43.2627 133.795C42.6573 133.521 42.1429 133.144 41.7198 132.662C41.2966 132.174 40.9743 131.604 40.753 130.953C40.5316 130.302 40.4209 129.596 40.4209 128.834ZM42.7745 128.609V128.834C42.7745 129.309 42.8233 129.758 42.9209 130.182C43.0186 130.605 43.1716 130.976 43.3799 131.295C43.5883 131.614 43.8552 131.865 44.1807 132.047C44.5062 132.229 44.8936 132.32 45.3428 132.32C45.779 132.32 46.1566 132.229 46.4756 132.047C46.8011 131.865 47.0681 131.614 47.2764 131.295C47.4847 130.976 47.6377 130.605 47.7354 130.182C47.8396 129.758 47.8916 129.309 47.8916 128.834V128.609C47.8916 128.141 47.8396 127.698 47.7354 127.281C47.6377 126.858 47.4815 126.484 47.2666 126.158C47.0583 125.833 46.7914 125.579 46.4659 125.396C46.1468 125.208 45.766 125.113 45.3233 125.113C44.8806 125.113 44.4965 125.208 44.1709 125.396C43.8519 125.579 43.5883 125.833 43.3799 126.158C43.1716 126.484 43.0186 126.858 42.9209 127.281C42.8233 127.698 42.7745 128.141 42.7745 128.609ZM63.7335 119.781V134H61.3019V119.781H63.7335ZM68.1964 119.781V121.734H56.878V119.781H68.1964ZM72.6213 119V134H70.2775V119H72.6213ZM72.2111 128.326L71.4494 128.316C71.4559 127.587 71.5568 126.913 71.7521 126.295C71.9539 125.676 72.2339 125.139 72.592 124.684C72.9565 124.221 73.3927 123.867 73.9005 123.619C74.4084 123.365 74.9715 123.238 75.59 123.238C76.1108 123.238 76.5796 123.31 76.9963 123.453C77.4194 123.596 77.784 123.827 78.09 124.146C78.396 124.459 78.6271 124.869 78.7834 125.377C78.9461 125.878 79.0275 126.49 79.0275 127.213V134H76.6642V127.193C76.6642 126.686 76.5893 126.282 76.4396 125.982C76.2964 125.683 76.0848 125.468 75.8048 125.338C75.5249 125.201 75.1831 125.133 74.7795 125.133C74.3563 125.133 73.9819 125.217 73.6564 125.387C73.3374 125.556 73.0705 125.787 72.8556 126.08C72.6408 126.373 72.478 126.712 72.3673 127.096C72.2632 127.48 72.2111 127.89 72.2111 128.326ZM88.2277 131.51V123.434H90.591V134H88.3645L88.2277 131.51ZM88.5598 129.312L89.3508 129.293C89.3508 130.003 89.2727 130.657 89.1164 131.256C88.9602 131.848 88.7193 132.366 88.3937 132.809C88.0682 133.245 87.6516 133.587 87.1437 133.834C86.6359 134.075 86.0272 134.195 85.3176 134.195C84.8033 134.195 84.3312 134.12 83.9016 133.971C83.4719 133.821 83.1008 133.59 82.7883 133.277C82.4823 132.965 82.2447 132.558 82.0754 132.057C81.9061 131.555 81.8215 130.956 81.8215 130.26V123.434H84.175V130.279C84.175 130.663 84.2206 130.986 84.3117 131.246C84.4029 131.5 84.5266 131.705 84.6828 131.861C84.8391 132.018 85.0214 132.128 85.2297 132.193C85.438 132.258 85.6594 132.291 85.8937 132.291C86.5643 132.291 87.0917 132.161 87.4758 131.9C87.8664 131.633 88.1431 131.275 88.3059 130.826C88.4751 130.377 88.5598 129.872 88.5598 129.312ZM95.8166 125.582V134H93.4631V123.434H95.6799L95.8166 125.582ZM95.4358 128.326L94.635 128.316C94.635 127.587 94.7261 126.913 94.9084 126.295C95.0907 125.676 95.3577 125.139 95.7092 124.684C96.0608 124.221 96.497 123.867 97.0178 123.619C97.5452 123.365 98.1539 123.238 98.844 123.238C99.3258 123.238 99.7652 123.31 100.162 123.453C100.566 123.59 100.914 123.808 101.207 124.107C101.507 124.407 101.735 124.791 101.891 125.26C102.054 125.729 102.135 126.295 102.135 126.959V134H99.7815V127.164C99.7815 126.65 99.7034 126.246 99.5471 125.953C99.3974 125.66 99.1793 125.452 98.8928 125.328C98.6129 125.198 98.2776 125.133 97.887 125.133C97.4442 125.133 97.0666 125.217 96.7541 125.387C96.4482 125.556 96.1975 125.787 96.0022 126.08C95.8069 126.373 95.6636 126.712 95.5725 127.096C95.4814 127.48 95.4358 127.89 95.4358 128.326ZM101.989 127.701L100.885 127.945C100.885 127.307 100.973 126.705 101.149 126.139C101.331 125.566 101.595 125.064 101.94 124.635C102.291 124.199 102.724 123.857 103.239 123.609C103.753 123.362 104.342 123.238 105.006 123.238C105.546 123.238 106.028 123.313 106.451 123.463C106.881 123.606 107.246 123.834 107.545 124.146C107.845 124.459 108.073 124.866 108.229 125.367C108.385 125.862 108.463 126.461 108.463 127.164V134H106.1V127.154C106.1 126.62 106.022 126.207 105.865 125.914C105.716 125.621 105.501 125.419 105.221 125.309C104.941 125.191 104.606 125.133 104.215 125.133C103.85 125.133 103.528 125.201 103.248 125.338C102.975 125.468 102.744 125.654 102.555 125.895C102.366 126.129 102.223 126.399 102.125 126.705C102.034 127.011 101.989 127.343 101.989 127.701ZM111.355 119H113.708V131.744L113.484 134H111.355V119ZM120.603 128.619V128.824C120.603 129.605 120.515 130.325 120.339 130.982C120.17 131.633 119.909 132.2 119.558 132.682C119.213 133.163 118.783 133.538 118.269 133.805C117.761 134.065 117.172 134.195 116.501 134.195C115.844 134.195 115.271 134.072 114.783 133.824C114.294 133.577 113.884 133.225 113.552 132.77C113.227 132.314 112.963 131.77 112.761 131.139C112.559 130.507 112.416 129.811 112.331 129.049V128.395C112.416 127.626 112.559 126.93 112.761 126.305C112.963 125.673 113.227 125.13 113.552 124.674C113.884 124.212 114.291 123.857 114.773 123.609C115.261 123.362 115.831 123.238 116.482 123.238C117.159 123.238 117.755 123.368 118.269 123.629C118.79 123.889 119.223 124.26 119.568 124.742C119.913 125.217 120.17 125.784 120.339 126.441C120.515 127.099 120.603 127.825 120.603 128.619ZM118.249 128.824V128.619C118.249 128.144 118.21 127.698 118.132 127.281C118.054 126.858 117.924 126.487 117.741 126.168C117.566 125.849 117.325 125.598 117.019 125.416C116.719 125.227 116.345 125.133 115.896 125.133C115.479 125.133 115.121 125.204 114.822 125.348C114.522 125.491 114.271 125.686 114.07 125.934C113.868 126.181 113.708 126.467 113.591 126.793C113.48 127.118 113.406 127.47 113.366 127.848V129.615C113.425 130.104 113.549 130.553 113.738 130.963C113.933 131.367 114.206 131.692 114.558 131.939C114.909 132.18 115.362 132.301 115.915 132.301C116.352 132.301 116.719 132.213 117.019 132.037C117.318 131.861 117.556 131.617 117.732 131.305C117.914 130.986 118.044 130.615 118.122 130.191C118.207 129.768 118.249 129.312 118.249 128.824ZM125.389 125.689V134H123.035V123.434H125.252L125.389 125.689ZM124.969 128.326L124.207 128.316C124.214 127.568 124.318 126.881 124.52 126.256C124.728 125.631 125.015 125.094 125.379 124.645C125.75 124.195 126.193 123.85 126.707 123.609C127.222 123.362 127.795 123.238 128.426 123.238C128.934 123.238 129.393 123.31 129.803 123.453C130.22 123.59 130.575 123.814 130.868 124.127C131.167 124.439 131.395 124.846 131.551 125.348C131.707 125.842 131.785 126.451 131.785 127.174V134H129.422V127.164C129.422 126.656 129.347 126.256 129.198 125.963C129.054 125.663 128.843 125.452 128.563 125.328C128.289 125.198 127.948 125.133 127.537 125.133C127.134 125.133 126.772 125.217 126.453 125.387C126.134 125.556 125.864 125.787 125.643 126.08C125.428 126.373 125.262 126.712 125.145 127.096C125.028 127.48 124.969 127.89 124.969 128.326ZM140.605 131.881V126.842C140.605 126.464 140.536 126.139 140.4 125.865C140.263 125.592 140.055 125.38 139.775 125.23C139.501 125.081 139.156 125.006 138.74 125.006C138.355 125.006 138.023 125.071 137.744 125.201C137.464 125.331 137.245 125.507 137.089 125.729C136.933 125.95 136.855 126.201 136.855 126.48H134.511C134.511 126.064 134.612 125.66 134.814 125.27C135.016 124.879 135.309 124.531 135.693 124.225C136.077 123.919 136.536 123.678 137.07 123.502C137.604 123.326 138.202 123.238 138.867 123.238C139.661 123.238 140.364 123.372 140.976 123.639C141.594 123.906 142.079 124.309 142.431 124.85C142.789 125.383 142.968 126.054 142.968 126.861V131.559C142.968 132.04 143.001 132.473 143.066 132.857C143.137 133.235 143.238 133.564 143.369 133.844V134H140.956C140.846 133.746 140.758 133.424 140.693 133.033C140.634 132.636 140.605 132.252 140.605 131.881ZM140.947 127.574L140.966 129.029H139.277C138.841 129.029 138.456 129.072 138.124 129.156C137.792 129.234 137.516 129.352 137.294 129.508C137.073 129.664 136.907 129.853 136.796 130.074C136.686 130.296 136.63 130.546 136.63 130.826C136.63 131.106 136.695 131.363 136.826 131.598C136.956 131.826 137.145 132.005 137.392 132.135C137.646 132.265 137.952 132.33 138.31 132.33C138.792 132.33 139.212 132.232 139.57 132.037C139.934 131.835 140.221 131.591 140.429 131.305C140.637 131.012 140.748 130.735 140.761 130.475L141.523 131.52C141.445 131.786 141.311 132.073 141.122 132.379C140.934 132.685 140.686 132.978 140.38 133.258C140.081 133.531 139.719 133.756 139.296 133.932C138.88 134.107 138.398 134.195 137.851 134.195C137.161 134.195 136.546 134.059 136.005 133.785C135.465 133.505 135.042 133.131 134.736 132.662C134.43 132.187 134.277 131.65 134.277 131.051C134.277 130.491 134.381 129.996 134.589 129.566C134.804 129.13 135.117 128.766 135.527 128.473C135.943 128.18 136.451 127.958 137.05 127.809C137.649 127.652 138.333 127.574 139.101 127.574H140.947ZM148.409 123.434V134H146.045V123.434H148.409ZM145.889 120.66C145.889 120.302 146.006 120.006 146.241 119.771C146.482 119.531 146.814 119.41 147.237 119.41C147.653 119.41 147.982 119.531 148.223 119.771C148.464 120.006 148.584 120.302 148.584 120.66C148.584 121.012 148.464 121.305 148.223 121.539C147.982 121.773 147.653 121.891 147.237 121.891C146.814 121.891 146.482 121.773 146.241 121.539C146.006 121.305 145.889 121.012 145.889 120.66ZM153.966 119V134H151.603V119H153.966Z" fill="#9B9B9B"/>
  <path d="M56 55.125C56 50.2988 59.9238 46.375 64.75 46.375H117.25C122.076 46.375 126 50.2988 126 55.125V98.875C126 103.701 122.076 107.625 117.25 107.625H64.75C59.9238 107.625 56 103.701 56 98.875V55.125ZM100.27 69.6855C99.6543 68.7832 98.6426 68.25 97.5625 68.25C96.4824 68.25 95.457 68.7832 94.8555 69.6855L82.9609 87.1309L79.3379 82.6055C78.709 81.8262 77.7656 81.375 76.7812 81.375C75.7969 81.375 74.8398 81.8262 74.2246 82.6055L65.4746 93.543C64.6816 94.5273 64.5312 95.8809 65.0781 97.0156C65.625 98.1504 66.7734 98.875 68.0312 98.875H113.969C115.186 98.875 116.307 98.2051 116.867 97.125C117.428 96.0449 117.359 94.7461 116.676 93.748L100.27 69.6855ZM71.3125 68.25C73.053 68.25 74.7222 67.5586 75.9529 66.3279C77.1836 65.0972 77.875 63.428 77.875 61.6875C77.875 59.947 77.1836 58.2778 75.9529 57.0471C74.7222 55.8164 73.053 55.125 71.3125 55.125C69.572 55.125 67.9028 55.8164 66.6721 57.0471C65.4414 58.2778 64.75 59.947 64.75 61.6875C64.75 63.428 65.4414 65.0972 66.6721 66.3279C67.9028 67.5586 69.572 68.25 71.3125 68.25Z" fill="#ADADAD"/>
</svg>
