<svg
  width="24"
  height="24"
  viewBox="0 0 24 24"
  fill="none"
  xmlns="http://www.w3.org/2000/svg"
>
  <path
    d="M10 10.6078V16.3939M14 10.6078V16.3939M4 6.75043H20M19 6.75043L18.133 18.4596C18.0971 18.9462 17.8713 19.4016 17.5011 19.734C17.1309 20.0665 16.6439 20.2513 16.138 20.2513H7.862C7.35614 20.2513 6.86907 20.0665 6.49889 19.734C6.1287 19.4016 5.90292 18.9462 5.867 18.4596L5 6.75043H19ZM15 6.75043V3.85739C15 3.60162 14.8946 3.35634 14.7071 3.17549C14.5196 2.99464 14.2652 2.89304 14 2.89304H10C9.73478 2.89304 9.48043 2.99464 9.29289 3.17549C9.10536 3.35634 9 3.60162 9 3.85739V6.75043H15Z"
    stroke="#9B9B9B"
    stroke-width="2"
    stroke-linecap="round"
    stroke-linejoin="round"
  />
</svg>
