<svg width="40" height="40" viewBox="0 0 40 40" fill="none" xmlns="http://www.w3.org/2000/svg">
  <path fill-rule="evenodd" clip-rule="evenodd"
        d="M4 12C4 10.9391 4.42143 9.92172 5.17157 9.17157C5.92172 8.42143 6.93913 8 8 8H16L20 12H28C29.0609 12 30.0783 12.4214 30.8284 13.1716C31.5786 13.9217 32 14.9391 32 16V18H16C14.4087 18 12.8826 18.6321 11.7574 19.7574C10.6321 20.8826 10 22.4087 10 24V27C10 27.7956 9.68393 28.5587 9.12132 29.1213C8.55871 29.6839 7.79565 30 7 30C6.20435 30 5.44129 29.6839 4.87868 29.1213C4.31607 28.5587 4 27.7956 4 27V12Z"
        fill="#9B9B9B"/>
  <path
    d="M12 24C12 22.9391 12.4214 21.9217 13.1716 21.1716C13.9217 20.4214 14.9391 20 16 20H32C33.0609 20 34.0783 20.4214 34.8284 21.1716C35.5786 21.9217 36 22.9391 36 24V28C36 29.0609 35.5786 30.0783 34.8284 30.8284C34.0783 31.5786 33.0609 32 32 32H4H8C9.06087 32 10.0783 31.5786 10.8284 30.8284C11.5786 30.0783 12 29.0609 12 28V24Z"
    fill="#9B9B9B"/>
</svg>
