<svg width="200" height="200" viewBox="0 0 200 200" fill="none" xmlns="http://www.w3.org/2000/svg">
  <rect x="0.5" y="0.5" width="199" height="199" rx="3.5" fill="#F5F7FB"/>
  <rect x="0.5" y="0.5" width="199" height="199" rx="3.5" stroke="#70B2FF" stroke-dasharray="10 10"/>
  <path
    d="M135.156 100V127.344C135.156 129.416 134.333 131.403 132.868 132.868C131.403 134.333 129.416 135.156 127.344 135.156H115.625M135.156 100C109.992 100 95.6836 107.754 88.0664 116.574M135.156 100V94.1406M64.8438 115.625V127.344C64.8438 129.416 65.6668 131.403 67.132 132.868C68.5971 134.333 70.5842 135.156 72.6562 135.156H115.625M64.8438 115.625V72.6562C64.8438 70.5842 65.6668 68.5971 67.132 67.132C68.5971 65.6668 70.5842 64.8438 72.6562 64.8438H103.906M64.8438 115.625C70.3242 114.711 79.0508 114.48 88.0664 116.574M115.625 135.156C108.969 124.344 98.332 118.953 88.0664 116.574M127.344 60.9375V72.6562M127.344 84.375V72.6562M127.344 72.6562H139.062M127.344 72.6562H115.625M86.3281 80.4688C84.375 80.4688 80.4688 81.6406 80.4688 86.3281C80.4688 91.0156 84.375 92.1875 86.3281 92.1875C88.2812 92.1875 92.1875 91.0156 92.1875 86.3281C92.1875 81.6406 88.2812 80.4688 86.3281 80.4688Z"
    stroke="#1976D2" stroke-width="4" stroke-linecap="round" stroke-linejoin="round"/>
</svg>
