<svg width="17" height="12" viewBox="0 0 17 12" fill="none" xmlns="http://www.w3.org/2000/svg">
  <g clip-path="url(#clip0_5828_40549)">
    <rect width="17" height="12" rx="6" fill="#FFCED7"/>
    <path d="M9.94043 2.39062H11.1611V7.1416C11.1611 7.68197 11.0439 8.13444 10.8096 8.49902C10.5752 8.86361 10.2562 9.13867 9.85254 9.32422C9.45215 9.50651 9.00456 9.59766 8.50977 9.59766C7.9987 9.59766 7.54297 9.50651 7.14258 9.32422C6.74219 9.13867 6.42643 8.86361 6.19531 8.49902C5.96745 8.13444 5.85352 7.68197 5.85352 7.1416V2.39062H7.07422V7.1416C7.07422 7.4834 7.13281 7.76497 7.25 7.98633C7.36719 8.20443 7.5332 8.36556 7.74805 8.46973C7.96289 8.57389 8.2168 8.62598 8.50977 8.62598C8.80273 8.62598 9.05501 8.57389 9.2666 8.46973C9.48145 8.36556 9.64746 8.20443 9.76465 7.98633C9.88184 7.76497 9.94043 7.4834 9.94043 7.1416V2.39062Z" fill="black"/>
  </g>
  <rect x="0.5" y="0.5" width="16" height="11" rx="5.5" stroke="#FF9AAD"/>
  <defs>
    <clipPath id="clip0_5828_40549">
      <rect width="17" height="12" rx="6" fill="white"/>
    </clipPath>
  </defs>
</svg>
