<svg width="50" height="50" viewBox="0 0 50 50" fill="none" xmlns="http://www.w3.org/2000/svg">
  <path
    d="M25.0001 4.16675C36.5063 4.16675 45.8334 13.4938 45.8334 25.0001C45.8334 36.5063 36.5063 45.8334 25.0001 45.8334C13.4938 45.8334 4.16675 36.5063 4.16675 25.0001C4.16675 13.4938 13.4938 4.16675 25.0001 4.16675ZM25.0001 8.33342C20.5798 8.33342 16.3406 10.0894 13.215 13.215C10.0894 16.3406 8.33342 20.5798 8.33342 25.0001C8.33342 29.4204 10.0894 33.6596 13.215 36.7852C16.3406 39.9108 20.5798 41.6668 25.0001 41.6668C29.4204 41.6668 33.6596 39.9108 36.7852 36.7852C39.9108 33.6596 41.6668 29.4204 41.6668 25.0001C41.6668 20.5798 39.9108 16.3406 36.7852 13.215C33.6596 10.0894 29.4204 8.33342 25.0001 8.33342ZM25.0001 31.2501C25.5526 31.2501 26.0825 31.4696 26.4732 31.8603C26.8639 32.251 27.0834 32.7809 27.0834 33.3334C27.0834 33.886 26.8639 34.4159 26.4732 34.8066C26.0825 35.1973 25.5526 35.4167 25.0001 35.4167C24.4475 35.4167 23.9176 35.1973 23.5269 34.8066C23.1362 34.4159 22.9167 33.886 22.9167 33.3334C22.9167 32.7809 23.1362 32.251 23.5269 31.8603C23.9176 31.4696 24.4475 31.2501 25.0001 31.2501ZM25.0001 12.5001C25.5526 12.5001 26.0825 12.7196 26.4732 13.1103C26.8639 13.501 27.0834 14.0309 27.0834 14.5834V27.0834C27.0834 27.636 26.8639 28.1659 26.4732 28.5566C26.0825 28.9473 25.5526 29.1667 25.0001 29.1667C24.4475 29.1667 23.9176 28.9473 23.5269 28.5566C23.1362 28.1659 22.9167 27.636 22.9167 27.0834V14.5834C22.9167 14.0309 23.1362 13.501 23.5269 13.1103C23.9176 12.7196 24.4475 12.5001 25.0001 12.5001Z"
    fill="#FF4A4A"/>
</svg>
