<svg width="21" height="21" viewBox="0 0 21 21" fill="none" xmlns="http://www.w3.org/2000/svg">
    <path d="M19 11V18C19 18.5304 18.7893 19.0391 18.4142 19.4142C18.0391 19.7893 17.5304 20 17 20H14M19 11C12.558 11 8.895 12.985 6.945 15.243M19 11V9.5M1 15V18C1 18.5304 1.21071 19.0391 1.58579 19.4142C1.96086 19.7893 2.46957 20 3 20H14M1 15V4C1 3.46957 1.21071 2.96086 1.58579 2.58579C1.96086 2.21071 2.46957 2 3 2H11M1 15C2.403 14.766 4.637 14.707 6.945 15.243M14 20C12.296 17.232 9.573 15.852 6.945 15.243M17 1V4M17 7V4M17 4H20M17 4H14M6.5 6C6 6 5 6.3 5 7.5C5 8.7 6 9 6.5 9C7 9 8 8.7 8 7.5C8 6.3 7 6 6.5 6Z" stroke="#1976D2" stroke-width="2" stroke-linecap="round" stroke-linejoin="round"/>
</svg>
