<svg width="25" height="25" viewBox="0 0 25 25" fill="none" xmlns="http://www.w3.org/2000/svg">
  <circle cx="12.5" cy="12.5" r="12.5" fill="#70B2FF"/>
  <path d="M11.25 12.25V16.25C11.25 16.6042 11.37 16.9013 11.61 17.1413C11.85 17.3813 12.1467 17.5008 12.5 17.5C12.8542 17.5 13.1513 17.38 13.3913 17.14C13.6313 16.9 13.7508 16.6033 13.75 16.25V12.25L14.875 13.375C15.1042 13.6042 15.3958 13.7188 15.75 13.7188C16.1042 13.7188 16.3958 13.6042 16.625 13.375C16.8542 13.1458 16.9688 12.8542 16.9688 12.5C16.9688 12.1458 16.8542 11.8542 16.625 11.625L13.375 8.375C13.125 8.125 12.8333 8 12.5 8C12.1667 8 11.875 8.125 11.625 8.375L8.375 11.625C8.14583 11.8542 8.03125 12.1458 8.03125 12.5C8.03125 12.8542 8.14583 13.1458 8.375 13.375C8.60417 13.6042 8.89583 13.7188 9.25 13.7188C9.60417 13.7188 9.89583 13.6042 10.125 13.375L11.25 12.25ZM12.5 25C10.7708 25 9.14583 24.6717 7.625 24.015C6.10417 23.3583 4.78125 22.4679 3.65625 21.3438C2.53125 20.2188 1.64083 18.8958 0.985 17.375C0.329167 15.8542 0.000833333 14.2292 0 12.5C0 10.7708 0.328333 9.14583 0.985 7.625C1.64167 6.10417 2.53208 4.78125 3.65625 3.65625C4.78125 2.53125 6.10417 1.64083 7.625 0.985C9.14583 0.329167 10.7708 0.000833333 12.5 0C14.2292 0 15.8542 0.328333 17.375 0.985C18.8958 1.64167 20.2188 2.53208 21.3438 3.65625C22.4688 4.78125 23.3596 6.10417 24.0162 7.625C24.6729 9.14583 25.0008 10.7708 25 12.5C25 14.2292 24.6717 15.8542 24.015 17.375C23.3583 18.8958 22.4679 20.2188 21.3438 21.3438C20.2188 22.4688 18.8958 23.3596 17.375 24.0162C15.8542 24.6729 14.2292 25.0008 12.5 25Z" fill="white"/>
</svg>
