<svg width="15" height="19" viewBox="0 0 15 19" fill="none" xmlns="http://www.w3.org/2000/svg">
  <rect y="8" width="15" height="11" fill=""/>
  <path
    d="M6.39586 0.267439C6.35725 0.187315 6.2968 0.119714 6.22149 0.0724055C6.14617 0.0250966 6.05903 0 5.97008 0C5.88114 0 5.794 0.0250966 5.71868 0.0724055C5.64336 0.119714 5.58292 0.187315 5.5443 0.267439L3.0443 5.57994C2.99147 5.69286 2.98565 5.82215 3.02814 5.93936C3.07063 6.05657 3.15794 6.1521 3.27086 6.20494C3.38379 6.25777 3.51308 6.26359 3.63029 6.2211C3.7475 6.17861 3.84303 6.0913 3.89586 5.97838L4.50133 4.68541H7.43883L8.0443 5.97838C8.08224 6.05918 8.14246 6.12748 8.21789 6.17522C8.29332 6.22297 8.38081 6.24819 8.47008 6.24791C8.53871 6.24719 8.60648 6.23258 8.6693 6.20494C8.78175 6.15158 8.86861 6.05602 8.91103 5.939C8.95345 5.82199 8.948 5.69296 8.89586 5.57994L6.39586 0.267439ZM4.94274 3.74791L5.97008 1.56822L6.99743 3.74791H4.94274ZM10.9701 1.82994C10.5949 1.82811 10.2282 1.94126 9.9193 2.15416C9.81726 2.22564 9.74779 2.33474 9.72617 2.45744C9.70456 2.58014 9.73258 2.70641 9.80407 2.80845C9.87555 2.9105 9.98464 2.97997 10.1073 3.00158C10.2301 3.02319 10.3563 2.99517 10.4584 2.92369C10.6087 2.81993 10.7875 2.76533 10.9701 2.76744C11.3998 2.76744 11.7513 3.04869 11.7513 3.39244V3.44713C11.5057 3.33657 11.2394 3.27932 10.9701 3.27916C10.0209 3.27916 9.25133 3.96275 9.25133 4.80259C9.25133 5.64244 10.0209 6.32603 10.9701 6.32603C11.2867 6.3263 11.5983 6.24706 11.8763 6.09556C11.9199 6.1435 11.9729 6.18181 12.0321 6.20804C12.0913 6.23428 12.1553 6.24785 12.2201 6.24791C12.3444 6.24791 12.4636 6.19852 12.5515 6.11061C12.6394 6.02271 12.6888 5.90348 12.6888 5.77916V3.39244C12.6888 2.52916 11.9193 1.82994 10.9701 1.82994ZM10.9701 5.38853C10.5482 5.38853 10.1888 5.119 10.1888 4.80259C10.1888 4.48619 10.5482 4.21666 10.9701 4.21666C11.392 4.21666 11.7513 4.48619 11.7513 4.80259C11.7513 5.119 11.392 5.38853 10.9701 5.38853Z"
    fill=""/>
</svg>
