<svg width="11" height="16" viewBox="0 0 11 16" fill="none" xmlns="http://www.w3.org/2000/svg">
    <path fill-rule="evenodd" clip-rule="evenodd"
          d="M10.707 10.293C10.8945 10.4805 10.9998 10.7348 10.9998 11C10.9998 11.2652 10.8945 11.5195 10.707 11.707L6.70699 15.707C6.51946 15.8945 6.26515 15.9998 5.99999 15.9998C5.73483 15.9998 5.48052 15.8945 5.29299 15.707L1.29299 11.707C1.19748 11.6148 1.1213 11.5044 1.06889 11.3824C1.01648 11.2604 0.988893 11.1292 0.987739 10.9964C0.986585 10.8636 1.01189 10.7319 1.06217 10.609C1.11245 10.4861 1.1867 10.3745 1.28059 10.2806C1.37449 10.1867 1.48614 10.1125 1.60904 10.0622C1.73193 10.0119 1.86361 9.9866 1.99639 9.98775C2.12917 9.9889 2.26039 10.0165 2.38239 10.0689C2.5044 10.1213 2.61474 10.1975 2.70699 10.293L4.99999 12.586V1C4.99999 0.734784 5.10535 0.48043 5.29288 0.292893C5.48042 0.105357 5.73477 0 5.99999 0C6.26521 0 6.51956 0.105357 6.7071 0.292893C6.89463 0.48043 6.99999 0.734784 6.99999 1V12.586L9.29299 10.293C9.48052 10.1055 9.73483 10.0002 9.99999 10.0002C10.2652 10.0002 10.5195 10.1055 10.707 10.293V10.293Z"
          fill=""/>
</svg>
