<svg width="" height="" viewBox="0 0 24 18" fill="none" xmlns="http://www.w3.org/2000/svg">
  <path fill-rule="evenodd" clip-rule="evenodd"
        d="M0 3C0 2.20435 0.31607 1.44129 0.87868 0.87868C1.44129 0.31607 2.20435 0 3 0H9L12 3H18C18.7956 3 19.5587 3.31607 20.1213 3.87868C20.6839 4.44129 21 5.20435 21 6V7.5H9C7.80653 7.5 6.66193 7.97411 5.81802 8.81802C4.97411 9.66193 4.5 10.8065 4.5 12V14.25C4.5 14.8467 4.26295 15.419 3.84099 15.841C3.41903 16.2629 2.84674 16.5 2.25 16.5C1.65326 16.5 1.08097 16.2629 0.65901 15.841C0.237053 15.419 8.89207e-09 14.8467 0 14.25V3Z"
        fill=""
  />
  <path
    d="M6 12C6 11.2044 6.31607 10.4413 6.87868 9.87868C7.44129 9.31607 8.20435 9 9 9H21C21.7956 9 22.5587 9.31607 23.1213 9.87868C23.6839 10.4413 24 11.2044 24 12V15C24 15.7956 23.6839 16.5587 23.1213 17.1213C22.5587 17.6839 21.7956 18 21 18H0H3C3.79565 18 4.55871 17.6839 5.12132 17.1213C5.68393 16.5587 6 15.7956 6 15V12Z"
    fill=""
  />
</svg>
