<svg width="24" height="18" viewBox="0 0 24 18" fill="none" xmlns="http://www.w3.org/2000/svg">
    <path fill-rule="evenodd" clip-rule="evenodd"
          d="M3 0C1.3425 0 0 1.3425 0 3V15C0 16.6575 1.3425 18 3 18H21C22.6575 18 24 16.6575 24 15V6C24 4.3425 22.6575 3 21 3H13.5L10.5 0H3ZM13.5 7.5C13.5 6.672 12.828 6 12 6C11.172 6 10.5 6.672 10.5 7.5V9H9C8.172 9 7.5 9.672 7.5 10.5C7.5 11.328 8.172 12 9 12H10.5V13.5C10.5 14.328 11.172 15 12 15C12.828 15 13.5 14.328 13.5 13.5V12H15C15.828 12 16.5 11.328 16.5 10.5C16.5 9.672 15.828 9 15 9H13.5V7.5Z"
          fill="#1976D2"/>
</svg>
