<svg width="18" height="18" viewBox="0 0 18 18" fill="none" xmlns="http://www.w3.org/2000/svg">
    <path d="M2.99998 0.600006C2.36346 0.600006 1.75301 0.852862 1.30292 1.30295C0.852832 1.75304 0.599976 2.36349 0.599976 3.00001V5.40001C0.599976 6.03653 0.852832 6.64698 1.30292 7.09706C1.75301 7.54715 2.36346 7.80001 2.99998 7.80001H5.39998C6.0365 7.80001 6.64694 7.54715 7.09703 7.09706C7.54712 6.64698 7.79998 6.03653 7.79998 5.40001V3.00001C7.79998 2.36349 7.54712 1.75304 7.09703 1.30295C6.64694 0.852862 6.0365 0.600006 5.39998 0.600006H2.99998ZM2.99998 10.2C2.36346 10.2 1.75301 10.4529 1.30292 10.903C0.852832 11.353 0.599976 11.9635 0.599976 12.6V15C0.599976 15.6365 0.852832 16.247 1.30292 16.6971C1.75301 17.1472 2.36346 17.4 2.99998 17.4H5.39998C6.0365 17.4 6.64694 17.1472 7.09703 16.6971C7.54712 16.247 7.79998 15.6365 7.79998 15V12.6C7.79998 11.9635 7.54712 11.353 7.09703 10.903C6.64694 10.4529 6.0365 10.2 5.39998 10.2H2.99998ZM10.2 3.00001C10.2 2.36349 10.4528 1.75304 10.9029 1.30295C11.353 0.852862 11.9635 0.600006 12.6 0.600006H15C15.6365 0.600006 16.2469 0.852862 16.697 1.30295C17.1471 1.75304 17.4 2.36349 17.4 3.00001V5.40001C17.4 6.03653 17.1471 6.64698 16.697 7.09706C16.2469 7.54715 15.6365 7.80001 15 7.80001H12.6C11.9635 7.80001 11.353 7.54715 10.9029 7.09706C10.4528 6.64698 10.2 6.03653 10.2 5.40001V3.00001ZM10.2 12.6C10.2 11.9635 10.4528 11.353 10.9029 10.903C11.353 10.4529 11.9635 10.2 12.6 10.2H15C15.6365 10.2 16.2469 10.4529 16.697 10.903C17.1471 11.353 17.4 11.9635 17.4 12.6V15C17.4 15.6365 17.1471 16.247 16.697 16.6971C16.2469 17.1472 15.6365 17.4 15 17.4H12.6C11.9635 17.4 11.353 17.1472 10.9029 16.6971C10.4528 16.247 10.2 15.6365 10.2 15V12.6Z"
          fill=""/>
</svg>
