<svg width="18" height="18" viewBox="0 0 18 18" fill="none" xmlns="http://www.w3.org/2000/svg">
    <path d="M0.599976 1.80001C0.599976 1.48175 0.726404 1.17652 0.951447 0.951478C1.17649 0.726434 1.48172 0.600006 1.79998 0.600006H16.2C16.5182 0.600006 16.8235 0.726434 17.0485 0.951478C17.2735 1.17652 17.4 1.48175 17.4 1.80001V4.20001C17.4 4.51827 17.2735 4.82349 17.0485 5.04853C16.8235 5.27358 16.5182 5.40001 16.2 5.40001H1.79998C1.48172 5.40001 1.17649 5.27358 0.951447 5.04853C0.726404 4.82349 0.599976 4.51827 0.599976 4.20001V1.80001ZM0.599976 9.00001C0.599976 8.68175 0.726404 8.37652 0.951447 8.15148C1.17649 7.92643 1.48172 7.80001 1.79998 7.80001H8.99998C9.31823 7.80001 9.62346 7.92643 9.8485 8.15148C10.0735 8.37652 10.2 8.68175 10.2 9.00001V16.2C10.2 16.5183 10.0735 16.8235 9.8485 17.0485C9.62346 17.2736 9.31823 17.4 8.99998 17.4H1.79998C1.48172 17.4 1.17649 17.2736 0.951447 17.0485C0.726404 16.8235 0.599976 16.5183 0.599976 16.2V9.00001ZM13.8 7.80001C13.4817 7.80001 13.1765 7.92643 12.9514 8.15148C12.7264 8.37652 12.6 8.68175 12.6 9.00001V16.2C12.6 16.5183 12.7264 16.8235 12.9514 17.0485C13.1765 17.2736 13.4817 17.4 13.8 17.4H16.2C16.5182 17.4 16.8235 17.2736 17.0485 17.0485C17.2735 16.8235 17.4 16.5183 17.4 16.2V9.00001C17.4 8.68175 17.2735 8.37652 17.0485 8.15148C16.8235 7.92643 16.5182 7.80001 16.2 7.80001H13.8Z"
          fill=""
    />
</svg>
