<svg width="14" height="15" viewBox="0 0 14 15" fill="none" xmlns="http://www.w3.org/2000/svg">
    <path d="M13.7299 8.7462L12.4111 7.71496C12.4278 7.55592 12.4422 7.37002 12.4422 7.17332C12.4422 6.97663 12.4284 6.79073 12.4111 6.63169L13.7311 5.59986C13.9762 5.40616 14.0432 5.0624 13.8871 4.77606L12.5157 2.40326C12.3692 2.13544 12.0482 1.99793 11.7224 2.1181L10.1662 2.74282C9.86793 2.5276 9.55525 2.34587 9.23184 2.2006L8.9951 0.550009C8.95623 0.236739 8.68362 0 8.36141 0H5.61142C5.28918 0 5.01719 0.236739 4.97891 0.545217L4.74158 2.2018C4.42831 2.3429 4.12045 2.52225 3.80898 2.74402L2.24865 2.11751C1.95629 2.00452 1.60656 2.13124 1.46128 2.39788L0.0880971 4.77365C-0.0739044 5.04746 -0.00695724 5.40316 0.243541 5.60165L1.56234 6.6329C1.5414 6.83436 1.53126 7.00953 1.53126 7.17394C1.53126 7.33835 1.54143 7.5135 1.56234 7.71557L0.242336 8.74741C-0.0027818 8.94169 -0.0691405 9.28545 0.0868921 9.57121L1.45831 11.944C1.60479 12.2112 1.92283 12.3499 2.25162 12.2291L3.80777 11.6044C4.10549 11.819 4.41814 12.0008 4.74158 12.1466L4.97832 13.7966C5.01716 14.1111 5.28918 14.3478 5.61201 14.3478H8.362C8.68424 14.3478 8.95685 14.1111 8.9951 13.8026L9.23243 12.1466C9.5457 12.005 9.85297 11.8262 10.165 11.6038L11.7254 12.2303C11.8007 12.2596 11.879 12.2746 11.9597 12.2746C12.1917 12.2746 12.4051 12.1478 12.5127 11.9505L13.8901 9.56521C14.0432 9.28543 13.9762 8.94169 13.7299 8.7462ZM6.9864 9.56521C5.66761 9.56521 4.59511 8.49271 4.59511 7.17391C4.59511 5.85512 5.66761 4.78262 6.9864 4.78262C8.3052 4.78262 9.3777 5.85512 9.3777 7.17391C9.3777 8.49271 8.3052 9.56521 6.9864 9.56521Z"
          fill="#434343"/>
</svg>
