<svg width="24" height="24" viewBox="0 0 24 24" fill="none" xmlns="http://www.w3.org/2000/svg">
  <g clip-path="url(#clip0_6298_57857)">
    <path d="M1.04483 10.5236C0.932972 11.4304 0.932972 12.3476 1.04483 13.2544M5.33912 3.08357C6.06872 2.53292 6.86325 2.07405 7.70483 1.71729M1.82998 7.59386C2.18616 6.75234 2.64445 5.95781 3.19455 5.22814M8.59455 15.0236V8.97557C8.59455 8.27614 9.40712 7.83386 10.0688 8.17329L15.9677 11.199C16.1202 11.2699 16.2494 11.383 16.3398 11.5248C16.4303 11.6666 16.4784 11.8313 16.4784 11.9996C16.4784 12.1678 16.4303 12.3325 16.3398 12.4744C16.2494 12.6162 16.1202 12.7292 15.9677 12.8001L10.0705 15.8259C9.40712 16.1653 8.59455 15.723 8.59455 15.0236Z" stroke="black" stroke-width="1.71429" stroke-linecap="round" stroke-linejoin="round"/>
    <path d="M12.0215 0.856934C18.1072 0.856934 23.0392 5.84551 23.0392 11.9998C23.0392 18.1541 18.1072 23.1426 12.0215 23.1426C7.82831 23.1426 4.18203 20.7735 2.32031 17.2866" stroke="black" stroke-width="1.71429" stroke-linecap="round" stroke-linejoin="round"/>
  </g>
  <defs>
    <clipPath id="clip0_6298_57857">
      <rect width="24" height="24" fill="white"/>
    </clipPath>
  </defs>
</svg>
