<svg width="18" height="21" viewBox="0 0 18 21" fill="none" xmlns="http://www.w3.org/2000/svg">
  <path
    d="M7 9.60783V15.3939M11 9.60783V15.3939M1 5.75043H17M16 5.75043L15.133 17.4596C15.0971 17.9462 14.8713 18.4016 14.5011 18.734C14.1309 19.0665 13.6439 19.2513 13.138 19.2513H4.862C4.35614 19.2513 3.86907 19.0665 3.49889 18.734C3.1287 18.4016 2.90292 17.9462 2.867 17.4596L2 5.75043H16ZM12 5.75043V2.85739C12 2.60162 11.8946 2.35634 11.7071 2.17549C11.5196 1.99464 11.2652 1.89304 11 1.89304H7C6.73478 1.89304 6.48043 1.99464 6.29289 2.17549C6.10536 2.35634 6 2.60162 6 2.85739V5.75043H12Z"
    stroke="#9B9B9B" stroke-width="2" stroke-linecap="round" stroke-linejoin="round"/>
</svg>
