<svg width="24" height="24" viewBox="0 0 24 24" fill="none" xmlns="http://www.w3.org/2000/svg">
  <g clip-path="url(#clip0_6310_58686)">
    <rect width="24" height="24" rx="5" fill="white"/>
    <path d="M20.1875 7.96875C20.2917 5.71875 19.4531 4.5625 17.6719 4.5C15.2656 4.41667 13.6406 5.77604 12.7969 8.57812C13.2552 8.38021 13.6823 8.28125 14.0781 8.28125C14.9635 8.28125 15.349 8.78125 15.2344 9.78125C15.1927 10.375 14.8073 11.2448 14.0781 12.3906C13.349 13.5365 12.8021 14.1094 12.4375 14.1094C11.9896 14.1094 11.5625 13.2292 11.1562 11.4688C11.0208 10.9062 10.7865 9.57812 10.4531 7.48438C10.1406 5.51562 9.30729 4.59375 7.95312 4.71875C7.33854 4.79167 6.48438 5.3125 5.39062 6.28125L4.125 7.40625L2.85938 8.53125L3.67188 9.57812C4.46354 9.03646 4.91667 8.76562 5.03125 8.76562C5.625 8.76562 6.18229 9.69792 6.70312 11.5625C6.85938 12.1354 7.09375 12.9922 7.40625 14.1328C7.71875 15.2734 7.95312 16.1302 8.10938 16.7031C8.81771 18.5677 9.67188 19.5 10.6719 19.5C12.3073 19.5 14.3021 17.9688 16.6562 14.9062C18.9479 11.9583 20.125 9.64583 20.1875 7.96875ZM24 4.5V19.5C24 20.7396 23.5599 21.7995 22.6797 22.6797C21.7995 23.5599 20.7396 24 19.5 24H4.5C3.26042 24 2.20052 23.5599 1.32031 22.6797C0.440104 21.7995 0 20.7396 0 19.5V4.5C0 3.26042 0.440104 2.20052 1.32031 1.32031C2.20052 0.440104 3.26042 0 4.5 0H19.5C20.7396 0 21.7995 0.440104 22.6797 1.32031C23.5599 2.20052 24 3.26042 24 4.5Z" fill="white" fill-opacity="0.2"/>
    <path d="M20.1875 7.96875C20.2917 5.71875 19.4531 4.5625 17.6719 4.5C15.2656 4.41667 13.6406 5.77604 12.7969 8.57812C13.2552 8.38021 13.6823 8.28125 14.0781 8.28125C14.9635 8.28125 15.349 8.78125 15.2344 9.78125C15.1927 10.375 14.8073 11.2448 14.0781 12.3906C13.349 13.5365 12.8021 14.1094 12.4375 14.1094C11.9896 14.1094 11.5625 13.2292 11.1562 11.4688C11.0208 10.9062 10.7865 9.57812 10.4531 7.48438C10.1406 5.51562 9.30729 4.59375 7.95312 4.71875C7.33854 4.79167 6.48438 5.3125 5.39062 6.28125L4.125 7.40625L2.85938 8.53125L3.67188 9.57812C4.46354 9.03646 4.91667 8.76562 5.03125 8.76562C5.625 8.76562 6.18229 9.69792 6.70312 11.5625C6.85938 12.1354 7.09375 12.9922 7.40625 14.1328C7.71875 15.2734 7.95312 16.1302 8.10938 16.7031C8.81771 18.5677 9.67188 19.5 10.6719 19.5C12.3073 19.5 14.3021 17.9688 16.6562 14.9062C18.9479 11.9583 20.125 9.64583 20.1875 7.96875ZM24 4.5V19.5C24 20.7396 23.5599 21.7995 22.6797 22.6797C21.7995 23.5599 20.7396 24 19.5 24H4.5C3.26042 24 2.20052 23.5599 1.32031 22.6797C0.440104 21.7995 0 20.7396 0 19.5V4.5C0 3.26042 0.440104 2.20052 1.32031 1.32031C2.20052 0.440104 3.26042 0 4.5 0H19.5C20.7396 0 21.7995 0.440104 22.6797 1.32031C23.5599 2.20052 24 3.26042 24 4.5Z" fill="black"/>
  </g>
  <defs>
    <clipPath id="clip0_6310_58686">
      <rect width="24" height="24" rx="5" fill="white"/>
    </clipPath>
  </defs>
</svg>
