<svg width="26" height="26" viewBox="0 0 26 26" fill="none" xmlns="http://www.w3.org/2000/svg">
  <rect width="26" height="26" rx="4" fill="#8CC039"/>
  <path
    d="M5.68 5.21V5.87H10.8V5.21H5.68ZM4.93 9.78V10.45H12.32V9.78H4.93ZM3.42 7.44V8.12H12.59V7.44H3.42ZM5.43 3.61V4.29H12.09V3.61H5.43ZM10.57 5.21V5.36C10.38 9.29 10.16 10.76 9.84 11.1C9.73 11.23 9.62 11.26 9.43 11.26C9.21 11.26 8.71 11.25 8.15 11.2C8.25 11.37 8.32 11.62 8.33 11.79C8.88 11.82 9.42 11.83 9.73 11.81C10.06 11.78 10.29 11.7 10.49 11.44C10.88 11 11.09 9.62 11.29 5.57C11.29 5.47 11.3 5.21 11.3 5.21H10.57ZM5.37 5.21C5.16 7.02 4.75 9.55 4.42 11.02L5.18 11.07C5.47 9.62 5.87 7.08 6.12 5.21H5.37ZM7.9 5.53C7.79 6.99 7.55 9.01 7.35 10.18H8.05C8.23 9.04 8.47 7.02 8.61 5.53H7.9ZM5.8 2.6C5.42 3.54 4.7 4.72 3.63 5.6C3.83 5.69 4.11 5.89 4.25 6.05C5.36 5.07 6.1 3.85 6.6 2.74L5.8 2.6ZM15.22 3.28V11.69H15.99V4.04H20.98V11.65H21.77V3.28H15.22ZM15.73 6.75V7.49H21.31V6.75H15.73ZM15.72 10.29V11.04H21.33V10.29H15.72ZM5.55 14.6C5.08 15.61 4.26 16.59 3.41 17.22C3.59 17.34 3.89 17.58 4.03 17.72C4.87 17.02 5.73 15.94 6.28 14.81L5.55 14.6ZM5.2 15.75L4.95 16.43H12.09V15.75H5.2ZM3.53 18.12V18.8H12.47V18.12H3.53ZM3.69 20.51V21.19H12.33V20.51H3.69ZM6.72 15.98V20.84H7.37V15.98H6.72ZM4.93 15.98V20.87H5.61V15.98H4.93ZM8.53 15.98V20.87H9.17V15.98H8.53ZM10.36 15.98V20.87H11.05V15.98H10.36ZM6.45 21.87C6.57 22.47 6.65 23.25 6.65 23.72L7.39 23.61C7.38 23.15 7.27 22.39 7.14 21.8L6.45 21.87ZM8.49 21.87C8.75 22.47 9 23.25 9.09 23.73L9.83 23.57C9.73 23.1 9.46 22.32 9.19 21.75L8.49 21.87ZM10.53 21.81C11.03 22.43 11.6 23.29 11.84 23.82L12.59 23.55C12.32 23.01 11.73 22.17 11.23 21.57L10.53 21.81ZM4.7 21.61C4.45 22.34 3.98 23.1 3.46 23.52L4.17 23.82C4.7 23.34 5.16 22.54 5.42 21.79L4.7 21.61ZM15.54 14.64V23.79H16.24V14.64H15.54ZM13.93 17.96V18.67H17.88V17.96H13.93ZM15.43 18.33C15.11 19.5 14.41 21.02 13.77 21.79C13.89 21.99 14.07 22.31 14.15 22.53C14.82 21.62 15.53 19.89 15.88 18.53L15.43 18.33ZM16.22 18.8L15.85 19.11C16.18 19.54 17 20.85 17.25 21.39L17.75 20.79C17.52 20.46 16.5 19.1 16.22 18.8ZM14 15.38C14.26 16.08 14.49 17.01 14.54 17.61L15.13 17.45C15.06 16.85 14.83 15.94 14.55 15.24L14 15.38ZM17.23 15.2C17.09 15.88 16.79 16.88 16.57 17.48L17.05 17.63C17.32 17.07 17.63 16.13 17.89 15.37L17.23 15.2ZM21.11 14.61V23.8H21.82V14.61H21.11ZM17.86 20.97L17.98 21.67L23.12 20.74L23 20.05L17.86 20.97ZM18.61 15.83C19.19 16.19 19.88 16.73 20.2 17.12L20.6 16.54C20.27 16.17 19.58 15.66 19 15.32L18.61 15.83ZM18.1 18.35C18.7 18.68 19.42 19.19 19.77 19.55L20.15 18.96C19.79 18.6 19.05 18.13 18.45 17.82L18.1 18.35Z"
    fill="black"/>
</svg>
