<svg width="36" height="24" viewBox="0 0 36 24" fill="none" xmlns="http://www.w3.org/2000/svg">
  <g clip-path="url(#clip0_6296_53040)">
    <path d="M34.3131 3.74333C34.1173 3.01981 33.7354 2.36019 33.2054 1.83017C32.6754 1.30015 32.0158 0.918215 31.2923 0.7224C28.6435 0 17.983 0 17.983 0C17.983 0 7.32189 0.0218666 4.67309 0.744267C3.94955 0.940093 3.28994 1.32205 2.75994 1.85209C2.22995 2.38214 1.84805 3.04178 1.65229 3.76533C0.851086 8.47173 0.540286 15.6432 1.67429 20.1613C1.87007 20.8849 2.25197 21.5445 2.78197 22.0745C3.31197 22.6045 3.97157 22.9865 4.69509 23.1823C7.34389 23.9047 18.0047 23.9047 18.0047 23.9047C18.0047 23.9047 28.6654 23.9047 31.314 23.1823C32.0376 22.9865 32.6972 22.6045 33.2272 22.0745C33.7572 21.5445 34.1392 20.8849 34.335 20.1613C35.18 15.4483 35.4404 8.2812 34.3131 3.74333Z" fill="#FF0000"/>
    <path d="M14.5898 17.0749L23.4336 11.9525L14.5898 6.83008V17.0749Z" fill="white"/>
  </g>
  <defs>
    <clipPath id="clip0_6296_53040">
      <rect width="34.14" height="24" fill="white" transform="translate(0.929688)"/>
    </clipPath>
  </defs>
</svg>
