<svg width="64" height="64" viewBox="0 0 64 64" fill="none" xmlns="http://www.w3.org/2000/svg">
  <rect x="0.5" y="0.5" width="63" height="63" rx="3.5" fill="#F5F7FB"/>
  <rect x="0.5" y="0.5" width="63" height="63" rx="3.5" stroke="#70B2FF" stroke-dasharray="10 10"/>
  <path
    d="M43.25 32V40.75C43.25 41.413 42.9866 42.0489 42.5178 42.5178C42.0489 42.9866 41.413 43.25 40.75 43.25H37M43.25 32C35.1975 32 30.6187 34.4813 28.1812 37.3038M43.25 32V30.125M20.75 37V40.75C20.75 41.413 21.0134 42.0489 21.4822 42.5178C21.9511 42.9866 22.587 43.25 23.25 43.25H37M20.75 37V23.25C20.75 22.587 21.0134 21.9511 21.4822 21.4822C21.9511 21.0134 22.587 20.75 23.25 20.75H33.25M20.75 37C22.5037 36.7075 25.2962 36.6338 28.1812 37.3038M37 43.25C34.87 39.79 31.4662 38.065 28.1812 37.3038M40.75 19.5V23.25M40.75 27V23.25M40.75 23.25H44.5M40.75 23.25H37M27.625 25.75C27 25.75 25.75 26.125 25.75 27.625C25.75 29.125 27 29.5 27.625 29.5C28.25 29.5 29.5 29.125 29.5 27.625C29.5 26.125 28.25 25.75 27.625 25.75Z"
    stroke="#1976D2" stroke-width="2" stroke-linecap="round" stroke-linejoin="round"/>
</svg>
