<svg width="44" height="23" viewBox="0 0 44 23" fill="none" xmlns="http://www.w3.org/2000/svg">
    <path fill-rule="evenodd" clip-rule="evenodd"
          d="M43.2604 6.03279L43.2604 16.9672C43.2604 19.8826 40.9423 22.2459 38.0828 22.2459L7.63499 22.2459C5.69464 22.2459 4.12167 20.6422 4.12167 18.6639L4.12167 17.25C4.12167 16.417 3.45937 15.7418 2.64238 15.7418L0.741135 15.7418L3.65842 12.9311C3.95411 12.6462 4.12167 12.2497 4.12167 11.8349L4.12167 5.65574C4.12167 2.94864 6.27415 0.754098 8.92937 0.754098L38.0828 0.754099C40.9423 0.754099 43.2604 3.11745 43.2604 6.03279ZM44 16.9672C44 20.299 41.3508 23 38.0828 23L7.63499 23C5.28614 23 3.38202 21.0587 3.38202 18.6639L3.38202 17.25C3.38202 16.8335 3.05087 16.4959 2.64238 16.4959L0.741135 16.4959C0.0720521 16.4959 -0.253178 15.6622 0.233116 15.1937L3.15039 12.383C3.29824 12.2406 3.38202 12.0423 3.38202 11.8349L3.38202 5.65574C3.38202 2.53216 5.86565 -4.54748e-07 8.92937 -4.18213e-07L38.0828 -7.05616e-08C41.3508 -3.15915e-08 44 2.70097 44 6.03279L44 16.9672Z"
          fill="#ADADAD"/>
</svg>
