<svg width="24" height="24" viewBox="0 0 24 24" fill="none" xmlns="http://www.w3.org/2000/svg">
    <circle cx="12" cy="12" r="12" fill="#D9D9D9" fill-opacity="0.87"/>
    <path d="M10.5 11.25V15.75M13.5 11.25V15.75M6 8.25H18M17.25 8.25L16.5997 17.3565C16.5728 17.7349 16.4035 18.0891 16.1258 18.3477C15.8482 18.6063 15.4829 18.75 15.1035 18.75H8.8965C8.5171 18.75 8.1518 18.6063 7.87416 18.3477C7.59653 18.0891 7.42719 17.7349 7.40025 17.3565L6.75 8.25H17.25ZM14.25 8.25V6C14.25 5.80109 14.171 5.61032 14.0303 5.46967C13.8897 5.32902 13.6989 5.25 13.5 5.25H10.5C10.3011 5.25 10.1103 5.32902 9.96967 5.46967C9.82902 5.61032 9.75 5.80109 9.75 6V8.25H14.25Z"
          stroke="#C51010" stroke-width="1.5" stroke-linecap="round" stroke-linejoin="round"/>
</svg>
