<svg width="64" height="64" viewBox="0 0 64 64" fill="none" xmlns="http://www.w3.org/2000/svg">
  <rect x="0.5" y="0.5" width="63" height="63" rx="3.5" fill="#F5F7FB"/>
  <rect x="0.5" y="0.5" width="63" height="63" rx="3.5" stroke="#70B2FF" stroke-dasharray="10 10"/>
  <path
    d="M25.3677 42.5765L25.7379 42.5024C26.5965 42.3307 27.0258 42.2448 27.3522 42.0293C27.689 41.8069 27.9506 41.4877 28.1026 41.1139C28.25 40.7515 28.25 40.3137 28.25 39.4381V37H24.8156C24.0565 37 23.677 37 23.3704 37.1017C22.7709 37.3005 22.3005 37.7709 22.1017 38.3704C22 38.677 22 39.0565 22 39.8156C22 40.7218 22 41.1749 22.1286 41.5159C22.3806 42.1845 22.9702 42.6678 23.6752 42.7838C24.0348 42.843 24.4791 42.7542 25.3677 42.5765L25.3677 42.5765Z"
    stroke="white" stroke-width="1.2"/>
  <path
    d="M37.8677 40.0765L38.2379 40.0024C39.0965 39.8307 39.5258 39.7448 39.8522 39.5293C40.189 39.3069 40.4506 38.9877 40.6026 38.6139C40.75 38.2515 40.75 37.8137 40.75 36.9381V34.5H37.3156C36.5565 34.5 36.177 34.5 35.8704 34.6017C35.2709 34.8005 34.8005 35.2709 34.6017 35.8704C34.5 36.177 34.5 36.5565 34.5 37.3156C34.5 38.2218 34.5 38.6749 34.6286 39.0159C34.8806 39.6845 35.4702 40.1678 36.1752 40.2838C36.5348 40.343 36.9791 40.2542 37.8677 40.0765Z"
    stroke="white" stroke-width="1.2"/>
  <path
    d="M28.25 37H24.8156C24.0565 37 23.677 37 23.3704 37.1017C22.7709 37.3005 22.3005 37.7709 22.1017 38.3704C22 38.677 22 39.0565 22 39.8156V39.8156C22 40.7218 22 41.1749 22.1286 41.5159C22.3806 42.1845 22.9702 42.6678 23.6752 42.7838C24.0348 42.843 24.4791 42.7542 25.3677 42.5765L25.7379 42.5024C26.5965 42.3307 27.0258 42.2448 27.3522 42.0293C27.689 41.8069 27.9506 41.4877 28.1026 41.1139C28.25 40.7515 28.25 40.3137 28.25 39.4381V27.7239C28.25 26.1788 28.25 25.4063 28.6928 24.8569C29.1356 24.3075 29.8905 24.1434 31.4003 23.8152L34 23.25C35.2204 23.0059 35.9046 22.8691 37.125 22.625M40.75 34.5V36.9381C40.75 37.8137 40.75 38.2515 40.6026 38.6139C40.4506 38.9877 40.189 39.3069 39.8522 39.5293C39.5258 39.7448 39.0965 39.8307 38.2379 40.0024L37.8677 40.0765C36.9791 40.2542 36.5348 40.343 36.1752 40.2838C35.4702 40.1678 34.8806 39.6845 34.6286 39.0159C34.5 38.6749 34.5 38.2218 34.5 37.3156V37.3156C34.5 36.5565 34.5 36.177 34.6017 35.8704C34.8005 35.2709 35.2709 34.8005 35.8704 34.6017C36.177 34.5 36.5565 34.5 37.3156 34.5H40.75ZM40.75 34.5V28.25M40.75 28.25L28.25 30.75M40.75 28.25V26"
    stroke="#1976D2" stroke-width="2"/>
  <path d="M42 18V21M42 21V24M42 21H45M42 21H39" stroke="#1976D2" stroke-width="2" stroke-linecap="round"
        stroke-linejoin="round"/>
</svg>
