<svg width="30" height="30" viewBox="0 0 30 30" fill="none" xmlns="http://www.w3.org/2000/svg">
  <path d="M25.8646 8.21689V28.0673C25.8646 29.1349 24.9987 29.9999 23.932 29.9999H6.06932C5.0018 29.9999 4.13672 29.1349 4.13672 28.0673V1.9326C4.13666 0.865078 5.00174 0 6.06932 0H17.6477L25.8646 8.21689Z" fill="#518EF8"/>
  <path d="M20.5562 15.0615H9.44531V16.2962H20.5562V15.0615Z" fill="white"/>
  <path d="M20.5562 17.8188H9.44531V19.0535H20.5562V17.8188Z" fill="white"/>
  <path d="M20.5562 20.5762H9.44531V21.8108H20.5562V20.5762Z" fill="white"/>
  <path d="M17.347 23.3335H9.44531V24.5681H17.347V23.3335Z" fill="white"/>
  <path d="M18.7695 8.03814L25.8654 10.9614V8.21668L21.8422 7.02881L18.7695 8.03814Z" fill="#3A5BBC"/>
  <path d="M25.8653 8.2169H19.581C18.5135 8.2169 17.6484 7.35182 17.6484 6.2843V0L25.8653 8.2169Z" fill="#ACD1FC"/>
</svg>
